<svg xmlns="http://www.w3.org/2000/svg" width="30" height="39" viewBox="0 0 30 39">
  <defs>
    <style>
      .cls-1 {
        fill: #ff7605;
        fill-rule: evenodd;
      }
    </style>
  </defs>
  <path id="Forma_1_копия_6" data-name="Forma 1 копия 6" class="cls-1" d="M1031.75,1524.19a1.155,1.155,0,0,0,.28-1.23,1.172,1.172,0,0,0-.99-0.78l-4.09-.48a0.51,0.51,0,0,1-.41-0.28l-1.91-3.59a1.214,1.214,0,0,0-2.16.06l-1.75,3.68a0.522,0.522,0,0,1-.4.3l-4.07.68a1.2,1.2,0,0,0-.95.84,1.148,1.148,0,0,0,.33,1.21l3.01,2.75a0.556,0.556,0,0,1,.17.47l-0.61,4.01a1.165,1.165,0,0,0,.5,1.15,1.228,1.228,0,0,0,1.28.06l3.61-1.98a0.531,0.531,0,0,1,.49-0.01l3.69,1.79a1.283,1.283,0,0,0,.57.13,1.2,1.2,0,0,0,.7-0.25,1.174,1.174,0,0,0,.46-1.17l-0.78-3.98a0.51,0.51,0,0,1,.14-0.47Zm-7.14-16.19a15.264,15.264,0,0,0-15.62,14.79c-0.45,11.31,12.19,23.16,12.73,23.66a2.066,2.066,0,0,0,2.57.2c0.58-.4,14.19-9.78,14.71-22.76A15.14,15.14,0,0,0,1024.61,1508Zm0.3,35.13a2.236,2.236,0,0,1-3.17-.19c-3.79-4.28-10.78-14.02-10.54-20.07,0.24-6.09,7.37-12.79,13.32-12.57s12.52,7.42,12.27,13.51C1036.5,1531.14,1028.6,1539.85,1024.91,1543.13Z" transform="translate(-1009 -1508)"/>
</svg>
