<svg id="Группа_54" data-name="Группа 54" xmlns="http://www.w3.org/2000/svg" width="26.63" height="29.38" viewBox="0 0 26.63 29.38">
  <defs>
    <style>
      .cls-1 {
        fill: #0069c7;
      }

      .cls-1, .cls-2 {
        fill-rule: evenodd;
      }

      .cls-2 {
        fill: #717171;
      }
    </style>
  </defs>
  <path id="Forma_1_копия_7" data-name="Forma 1 копия 7" class="cls-1" d="M1151.76,1713.35l-2.17-3.74a7.709,7.709,0,0,1,3.03-10.45l2.65-1.53,5.73,10.31Z" transform="translate(-1148 -1695.03)"/>
  <path id="Forma_1" data-name="Forma 1" class="cls-2" d="M1156.21,1696.11l-4.22,2.43a7.7,7.7,0,0,0-3.03,10.44l6.8,11.75a7.753,7.753,0,0,0,10.59,2.6l4.22-2.43a7.574,7.574,0,0,0,3.1-10.31l-6.87-11.88A7.753,7.753,0,0,0,1156.21,1696.11Zm-3.32,3.66,1.36-.79,3.02,5.22a0.727,0.727,0,0,0,1.06.26,0.716,0.716,0,0,0,.3-1.04l-3.02-5.22,1.5-.86a6.184,6.184,0,0,1,8.46,2.08l2.19,3.78-15.11,8.71-2.19-3.79A6.155,6.155,0,0,1,1152.89,1699.77Zm17.13,19.88-4.22,2.43a6.184,6.184,0,0,1-8.46-2.08l-3.93-6.79,15.11-8.7,3.93,6.79A6.155,6.155,0,0,1,1170.02,1719.65Z" transform="translate(-1148 -1695.03)"/>
</svg>
