<svg xmlns="http://www.w3.org/2000/svg" width="30" height="39" viewBox="0 0 30 39">
  <defs>
    <style>
      .cls-1 {
        fill: #bc27bc;
        fill-rule: evenodd;
      }
    </style>
  </defs>
  <path id="Forma_1_копия_11" data-name="Forma 1 копия 11" class="cls-1" d="M1046.2,1439.37l1.24,6.6a1.042,1.042,0,0,0,1.05.87l9.66-.24a1.054,1.054,0,0,0,1.01-.95l0.73-6.63Zm4.37,4.73a0.526,0.526,0,0,1-.5.55,0.519,0.519,0,0,1-.53-0.52l-0.09-3.23a0.52,0.52,0,1,1,1.04-.03Zm3.12-.08a0.522,0.522,0,0,1-.51.55,0.531,0.531,0,0,1-.53-0.52l-0.09-3.23a0.534,0.534,0,0,1,.51-0.55,0.521,0.521,0,0,1,.53.53l0.09,3.22h0Zm3.11-.08a0.535,0.535,0,0,1-.5.56,0.542,0.542,0,0,1-.54-0.53l-0.08-3.23a0.533,0.533,0,0,1,.5-0.55,0.542,0.542,0,0,1,.54.53Zm3.6-8.16-1.52.04-4.64-4.57a0.5,0.5,0,0,0-.73.02,0.547,0.547,0,0,0,.02.76l3.88,3.83-8.91.22,3.68-4.02a0.547,0.547,0,0,0-.02-0.76,0.51,0.51,0,0,0-.73.02l-4.4,4.8-1.51.03a0.534,0.534,0,0,0-.51.55l0.03,1.08a0.54,0.54,0,0,0,.53.53l14.88-.38a0.522,0.522,0,0,0,.51-0.55l-0.03-1.07A0.54,0.54,0,0,0,1060.4,1435.78Zm-7.76-12.77a15.155,15.155,0,0,0-14.65,15.65c0.26,11.31,13.62,22.39,14.19,22.86a2.074,2.074,0,0,0,2.58.04c0.55-.43,13.53-10.58,13.23-23.54A15.208,15.208,0,0,0,1052.64,1423.01Zm2.51,35a2.216,2.216,0,0,1-3.17,0c-4.05-4.04-11.64-13.34-11.78-19.39-0.14-6.09,6.54-13.19,12.49-13.31s12.96,6.67,13.1,12.75C1065.95,1445.39,1058.63,1454.53,1055.15,1458.01Z" transform="translate(-1038 -1423)"/>
</svg>
