<svg xmlns="http://www.w3.org/2000/svg" width="30" height="39" viewBox="0 0 30 39">
  <defs>
    <style>
      .cls-1 {
        fill: #00b151;
        fill-rule: evenodd;
      }
    </style>
  </defs>
  <path id="Forma_1_копия_6" data-name="Forma 1 копия 6" class="cls-1" d="M919.084,1466.01a15.143,15.143,0,0,0-15.076,15.22c-0.056,11.3,12.979,22.76,13.534,23.24a2.065,2.065,0,0,0,2.581.12c0.563-.41,13.82-10.17,13.884-23.13A15.233,15.233,0,0,0,919.084,1466.01Zm1.526,35.05a2.226,2.226,0,0,1-3.171-.09c-3.934-4.16-11.254-13.67-11.224-19.72,0.03-6.09,6.906-12.98,12.857-12.94s12.758,7.05,12.728,13.13C931.763,1488.77,924.186,1497.68,920.61,1501.06Zm-3.385-13.31c-0.077-1.23,1.962-4.92,1.962-4.92s2.5,3.55,2.574,4.78a2.168,2.168,0,0,1-2.127,2.3A2.342,2.342,0,0,1,917.225,1487.75Zm7.947-4.93a2.212,2.212,0,1,1-2.024,3.93c-1.124-.58-3.415-4.26-3.415-4.26S924.048,1482.24,925.172,1482.82Zm-2.615-5.42a2.329,2.329,0,0,1,3.149.72,2.171,2.171,0,0,1-.637,3.07c-1.046.65-5.377,0.66-5.377,0.66S921.511,1478.05,922.557,1477.4Zm-1.49-.77c0.078,1.23-1.962,4.92-1.962,4.92s-2.5-3.55-2.574-4.78a2.168,2.168,0,0,1,2.127-2.3A2.341,2.341,0,0,1,921.067,1476.63Zm-7.947,4.93a2.212,2.212,0,1,1,2.024-3.93c1.124,0.58,3.415,4.26,3.415,4.26S914.244,1482.14,913.12,1481.56Zm2.615,5.42a2.329,2.329,0,0,1-3.149-.72,2.171,2.171,0,0,1,.638-3.07c1.045-.65,5.376-0.66,5.376-0.66S916.781,1486.33,915.735,1486.98Z" transform="translate(-904 -1466)"/>
</svg>
