<svg xmlns="http://www.w3.org/2000/svg" width="30" height="39" viewBox="0 0 30 39">
  <defs>
    <style>
      .cls-1 {
        fill: #0069c7;
        fill-rule: evenodd;
      }
    </style>
  </defs>
  <path id="Forma_1_копия_10" data-name="Forma 1 копия 10" class="cls-1" d="M1026.15,1648.03a15.249,15.249,0,0,0-14.13,16.2c0.63,11.3,14.34,21.89,14.92,22.34a2.061,2.061,0,0,0,2.58-.06c0.54-.44,13.18-11.08,12.46-24.04A15.137,15.137,0,0,0,1026.15,1648.03Zm3.65,34.92a2.226,2.226,0,0,1-3.17.12c-4.18-3.9-12.07-12.92-12.41-18.97-0.33-6.08,6.11-13.43,12.05-13.77s13.17,6.19,13.5,12.27C1040.18,1669.93,1033.16,1679.34,1029.8,1682.95Zm6.41-19.79v-0.41l-9.19-4.43-9.16,4.53v0.42l9.19,4.42Zm-15.16,2.46v2.68l5.54,2.67,0.93-.01,5.51-2.73c0-.01.01-0.02,0.01-0.03v-2.65l-5.99,2.96Zm14.22,4.01-0.02-5.21-0.72.38,0.01,4.84-0.47,1.46,0.72,0.97,0.24-.01,0.71-.97Z" transform="translate(-1012 -1648)"/>
</svg>
