<svg xmlns="http://www.w3.org/2000/svg" width="30" height="39" viewBox="0 0 30 39">
  <defs>
    <style>
      .cls-1 {
        fill: #d02834;
        fill-rule: evenodd;
      }
    </style>
  </defs>
  <path id="Forma_1_копия_8" data-name="Forma 1 копия 8" class="cls-1" d="M876,1550.18a1.1,1.1,0,0,0-1.146-1.08l-3.2.14a1.146,1.146,0,0,0-1.078,1.18l0.091,3.09-3.23.14a1.148,1.148,0,0,0-1.078,1.18l0.1,3.25a1.1,1.1,0,0,0,1.144,1.08l3.231-.14,0.1,3.28a1.1,1.1,0,0,0,1.145,1.08l3.2-.14a1.148,1.148,0,0,0,1.079-1.18l-0.1-3.28,3.049-.13a1.142,1.142,0,0,0,1.079-1.18l-0.1-3.25a1.109,1.109,0,0,0-1.146-1.08l-3.048.14Zm-3.522-11.17a15.27,15.27,0,0,0-14.469,15.91c0.394,11.3,13.882,22.16,14.455,22.61a2.054,2.054,0,0,0,2.585,0c0.547-.43,13.413-10.8,12.962-23.77A15.127,15.127,0,0,0,872.478,1539.01Zm2.918,34.97a2.229,2.229,0,0,1-3.174.05c-4.1-3.97-11.795-13.15-12-19.2-0.212-6.08,6.389-13.29,12.341-13.52s13.034,6.46,13.246,12.54C886.058,1561.17,878.837,1570.44,875.4,1573.98Z" transform="translate(-858 -1539)"/>
</svg>
