<svg xmlns="http://www.w3.org/2000/svg" width="56" height="44.03" viewBox="0 0 56 44.03">
  <defs>
    <style>
      .cls-1 {
        fill: #00adfe;
        fill-rule: evenodd;
      }
    </style>
  </defs>
  <path id="Forma_1" data-name="Forma 1" class="cls-1" d="M1348.86,6911.16h54.29a0.845,0.845,0,1,1,0,1.69h-54.29A0.845,0.845,0,1,1,1348.86,6911.16Zm21.51-21.17a0.9,0.9,0,0,1,.61.25,0.822,0.822,0,0,1,0,1.19L1350.07,6912l20.91,20.57a0.822,0.822,0,0,1,0,1.19,0.863,0.863,0,0,1-1.21,0l-21.52-21.16a0.833,0.833,0,0,1,0-1.19l21.52-21.17A0.857,0.857,0,0,1,1370.37,6889.99Z" transform="translate(-1348 -6890)"/>
</svg>
