<svg xmlns="http://www.w3.org/2000/svg" width="42.188" height="60.97" viewBox="0 0 42.188 60.97">
  <defs>
    <style>
      .cls-1 {
        fill: #fff;
        fill-rule: evenodd;
      }
    </style>
  </defs>
  <path id="Forma_1" data-name="Forma 1" class="cls-1" d="M518.29,2055.75l-33.485-34.23a0.719,0.719,0,0,1,.012-1.01l30.1-30.02a0.7,0.7,0,0,1,1,0l30.051,30.72a0.718,0.718,0,0,1-.012,1.01l-15,14.96,2.937,3.01a0.717,0.717,0,0,1-.012,1.01l-14.585,14.55A0.721,0.721,0,0,1,518.29,2055.75Zm-23.95-26.53,24.469,25.01,13.57-13.54-10.243-10.47a0.717,0.717,0,0,1,.012-1.01l0.977-.97-1.223-1.25a0.73,0.73,0,0,1,.012-1.02,0.7,0.7,0,0,1,1,0l1.223,1.25,3.281-3.27a0.7,0.7,0,0,1,1,0,0.718,0.718,0,0,1-.012,1.01l-4.766,4.76,2.878,2.94,14.5-14.46-2.879-2.94-3.71,3.7a0.7,0.7,0,0,1-1,0,0.718,0.718,0,0,1,.012-1.01l1.556-1.56-7.786-7.95a0.73,0.73,0,0,1,.012-1.02l1.647-1.64-1.809-1.85-2.357,2.35a0.7,0.7,0,0,1-1,0,0.718,0.718,0,0,1,.013-1.01l2.357-2.35-0.537-.55-1.308,1.31a0.7,0.7,0,0,1-1,0l-0.154-.16a2.4,2.4,0,0,1-.539.82l-1.319,1.31a2.352,2.352,0,0,1-3.343,0,2.4,2.4,0,0,1,.041-3.37l1.319-1.32a2.3,2.3,0,0,1,.814-0.53l-0.154-.16a0.719,0.719,0,0,1,.012-1.01l1.309-1.31-1.8-1.84-6.721,6.7a0.7,0.7,0,0,1-1,0l-0.644-.65-2.849,2.84,7.8,7.97,2.342-2.33a0.7,0.7,0,0,1,1,0,0.717,0.717,0,0,1-.012,1.01l-5.277,5.26,1.223,1.25a0.719,0.719,0,0,1-.012,1.01,0.7,0.7,0,0,1-1,0l-1.223-1.25-2.487,2.48a0.7,0.7,0,0,1-1,0,0.717,0.717,0,0,1,.012-1.01l5.422-5.41-7.075-7.23-14.573,14.54,3.93,4.01a0.73,0.73,0,0,1-.013,1.02Zm-8.025-8.2,7.034,7.19,2.4-2.4-3.929-4.02a0.718,0.718,0,0,1,.012-1.01l8.83-8.81-2.609-2.66Zm12.755-12.72,2.608,2.66,5.236-5.22-2.608-2.67Zm30.163,27.13,0.728,0.74,14.5-14.46-0.727-.74Zm-1.718-1.76,0.728,0.75,14.5-14.46-0.728-.75ZM505.5,2001.89l1.883,1.92,2.672-2.67-1.882-1.92Zm6.065-1.25,0.644,0.66,6.214-6.2-3.021-3.09-6.214,6.2Zm10,1.33a0.944,0.944,0,0,0-1.337,0l-1.32,1.32a0.963,0.963,0,0,0-.016,1.35,0.944,0.944,0,0,0,1.337,0l1.319-1.32A0.963,0.963,0,0,0,521.558,2001.97Zm7.165,5.96,7.291,7.45,1.139-1.13-7.291-7.46Zm-6.151-6.97,1.173,1.2,0.8-.8-2.345-2.4-0.8.8Zm-15.937,37.78-3.971-4.06a0.717,0.717,0,0,1,.012-1.01l9.3-9.27a0.7,0.7,0,0,1,1,0l3.972,4.06a0.718,0.718,0,0,1-.012,1.01l-9.3,9.27A0.7,0.7,0,0,1,506.635,2038.74Zm-2.461-4.56,2.981,3.04,0.507-.5-1.758-1.8a0.719,0.719,0,0,1,.012-1.01l6.254-6.24a0.7,0.7,0,0,1,1,0l1.758,1.8,0.508-.51-2.981-3.04Zm3.24,0.24,1.263,1.29,5.239-5.23-1.262-1.29Zm10.268,15a0.717,0.717,0,0,1,.012-1.01l8.728-8.71a0.7,0.7,0,0,1,1,0,0.718,0.718,0,0,1-.013,1.01l-1.574,1.57a0.725,0.725,0,0,1-.045.98l-4.567,4.56a0.718,0.718,0,0,1-.967.03l-1.575,1.57A0.7,0.7,0,0,1,517.682,2049.42Zm-4.167-5.49c-1.575-1.61-1.07-4.6,1.149-6.82s5.192-2.68,6.768-1.07,1.07,4.6-1.149,6.81S515.091,2045.54,513.515,2043.93Zm6.9-6.88c-0.986-1.01-3.167-.52-4.762,1.07s-2.111,3.79-1.125,4.8,3.167,0.51,4.762-1.08S521.4,2038.06,520.417,2037.05Z" transform="translate(-504 -1995)"/>
</svg>
