<svg id="Группа_52" data-name="Группа 52" xmlns="http://www.w3.org/2000/svg" width="106.969" height="93.62" viewBox="0 0 106.969 93.62">
  <defs>
    <style>
      .cls-1 {
        fill: #e8cd00;
      }

      .cls-1, .cls-2, .cls-3, .cls-4 {
        fill-rule: evenodd;
      }

      .cls-2 {
        fill: #bc27bc;
      }

      .cls-3 {
        fill: #ff7605;
      }

      .cls-4 {
        fill: #50b20c;
      }
    </style>
  </defs>
  <path id="Forma_1_копия_2" data-name="Forma 1 копия 2" class="cls-1" d="M596.8,1237.03l-0.846,3.11a1.624,1.624,0,0,0-1.276-.64,3.316,3.316,0,0,0-.529-3.05,2.834,2.834,0,0,0-4.163-.41,3.3,3.3,0,0,0-.352,4.44,2.955,2.955,0,0,0,2.042,1.12l-1.182,1.05a2.828,2.828,0,0,0-.587-1.83,2.438,2.438,0,0,0-3.569-.35,2.819,2.819,0,0,0-.3,3.8,2.441,2.441,0,0,0,1.9.96,1.9,1.9,0,0,0,.279,1.81l2.178,2.76a1.62,1.62,0,0,0,2.379.24l5.159-4.61a1.874,1.874,0,0,0,.2-2.53l3.024-.34a0.944,0.944,0,0,0,.1-1.27l-3.267-4.15A0.809,0.809,0,0,0,596.8,1237.03Zm-7.739,6.9a1.619,1.619,0,0,1-2.379-.23,1.874,1.874,0,0,1,.2-2.53,1.612,1.612,0,0,1,2.379.23A1.875,1.875,0,0,1,589.059,1243.93Zm4.2-3.73a2.033,2.033,0,0,1-2.98-.3,2.349,2.349,0,0,1,.251-3.17,2.039,2.039,0,0,1,2.98.29A2.361,2.361,0,0,1,593.254,1240.2Zm-14.5-5.93a15.337,15.337,0,0,0,5.6,20.92c9.812,5.81,26.406.29,27.107,0.05a2.081,2.081,0,0,0,1.414-2.19c-0.07-.7-1.841-17.24-13.1-23.91A15.315,15.315,0,0,0,578.757,1234.27Zm31.291,16.56a2.246,2.246,0,0,1-1.694,2.71c-5.617,1.31-17.615,2.84-22.868-.27-5.279-3.13-7.793-12.65-4.733-17.81s12.61-7.53,17.889-4.4C605,1234.83,608.921,1245.98,610.048,1250.83Z" transform="translate(-530.5 -1226.91)"/>
  <path id="Forma_1_копия_4" data-name="Forma 1 копия 4" class="cls-2" d="M568.3,1301.43l6.392-2.25a1.049,1.049,0,0,0,.709-1.17l-1.738-9.6a1.052,1.052,0,0,0-1.1-.85l-6.723.28Zm4.043-5.08a0.524,0.524,0,1,1,.186,1.03l-3.2.58a0.524,0.524,0,1,1-.186-1.03Zm-0.56-3.09a0.525,0.525,0,0,1,.627.42,0.536,0.536,0,0,1-.44.61l-3.205.58a0.54,0.54,0,0,1-.627-0.42,0.533,0.533,0,0,1,.441-0.61l3.2-.58h0Zm-0.56-3.09a0.527,0.527,0,0,1,.628.41,0.542,0.542,0,0,1-.441.62l-3.2.58a0.541,0.541,0,0,1-.628-0.42,0.528,0.528,0,0,1,.441-0.61Zm-8.694-2.33,0.272,1.5-3.837,5.33a0.511,0.511,0,0,0,.131.73,0.561,0.561,0,0,0,.756-0.14l3.214-4.46,1.6,8.85-4.575-3.06a0.56,0.56,0,0,0-.755.14,0.512,0.512,0,0,0,.132.73l5.462,3.64,0.272,1.51a0.541,0.541,0,0,0,.628.42l1.068-.2a0.527,0.527,0,0,0,.44-0.61l-2.674-14.77a0.541,0.541,0,0,0-.628-0.42l-1.068.2A0.526,0.526,0,0,0,562.534,1287.84Zm-11.185,11.17a15.324,15.324,0,0,0,18.95,10.46c10.994-3.04,18.519-18.82,18.835-19.49a2.091,2.091,0,0,0-.6-2.54c-0.553-.43-13.7-10.63-26.313-7.14A15.317,15.317,0,0,0,551.349,1299.01Zm33.623-11.08a2.26,2.26,0,0,1,.783,3.11c-2.951,4.95-10.166,14.66-16.051,16.29-5.915,1.63-14.517-3.15-16.119-8.94s3.315-14.31,9.23-15.95C569.943,1280.48,580.7,1285.39,584.972,1287.93Z" transform="translate(-530.5 -1226.91)"/>
  <path id="Forma_1_копия_5" data-name="Forma 1 копия 5" class="cls-3" d="M551.012,1248.62a1.176,1.176,0,0,0-.9-0.9,1.216,1.216,0,0,0-1.2.44l-2.609,3.24a0.562,0.562,0,0,1-.455.2l-4.09-.29a1.229,1.229,0,0,0-1.116,1.88l2.209,3.45a0.545,0.545,0,0,1,.042.5l-1.6,3.84a1.2,1.2,0,0,0,.2,1.26,1.159,1.159,0,0,0,1.213.36l3.973-1.1a0.522,0.522,0,0,1,.482.1l3.1,2.66a1.194,1.194,0,0,0,1.254.19,1.243,1.243,0,0,0,.735-1.06l0.244-4.14a0.538,0.538,0,0,1,.256-0.43l3.516-2.2a1.215,1.215,0,0,0,.409-0.41,1.266,1.266,0,0,0,.168-0.74,1.174,1.174,0,0,0-.759-1.01l-3.821-1.45a0.533,0.533,0,0,1-.324-0.38Zm-19.247.34a15.332,15.332,0,0,0,8.141,20.06c10.456,4.56,26.239-2.98,26.906-3.3a2.089,2.089,0,0,0,1.132-2.35c-0.156-.68-3.961-16.88-15.955-22.11A15.317,15.317,0,0,0,531.765,1248.96Zm33.1,12.55a2.259,2.259,0,0,1-1.344,2.91c-5.413,1.99-17.129,5-22.726,2.56-5.626-2.46-9.3-11.59-6.9-17.09s11.581-9.04,17.206-6.59C557.878,1246.26,563.146,1256.85,564.864,1261.51Z" transform="translate(-530.5 -1226.91)"/>
  <path id="Forma_1_копия_3" data-name="Forma 1 копия 3" class="cls-4" d="M621.687,1310.77l0.371-.12-0.355-1.09,0.657-.21-0.709-2.17-2.813.92-2.181-6.66,2.813-.92-0.709-2.17-0.657.22-0.355-1.09-0.37.12-0.259-.79-4.947,1.62,0.259,0.79-0.4.13,0.355,1.08-0.657.22,0.709,2.17,2.813-.92,2.181,6.66-2.813.92,0.71,2.17,0.656-.22,0.355,1.09,0.4-.13,0.259,0.79,4.947-1.62Zm-5.1-11.87-0.2-.62,0.963-.32,0.2,0.62Zm0.782,1.65-0.292-.9,1.423-.46,0.292,0.89Zm2.85,8.71-0.292-.89,1.423-.47,0.292,0.89Zm0.247,1.49-0.2-.61,0.962-.32,0.2,0.62Zm-16.616,2.79a15.326,15.326,0,0,0,21.161,4.56c9.653-6.07,12.316-23.36,12.425-24.09a2.089,2.089,0,0,0-1.3-2.26c-0.655-.25-16.182-6.23-27.256.74A15.32,15.32,0,0,0,603.852,1313.54Zm29.012-20.29a2.257,2.257,0,0,1,1.644,2.75c-1.4,5.59-5.515,16.97-10.683,20.22-5.193,3.27-14.809,1.16-18.009-3.92s-0.944-14.66,4.249-17.93C616.325,1290.44,628.04,1292.04,632.864,1293.25Z" transform="translate(-530.5 -1226.91)"/>
</svg>
