<svg id="Группа_53" data-name="Группа 53" xmlns="http://www.w3.org/2000/svg" width="88.12" height="67.41" viewBox="0 0 88.12 67.41">
  <defs>
    <style>
      .cls-1 {
        fill: #00b151;
      }

      .cls-1, .cls-2, .cls-3 {
        fill-rule: evenodd;
      }

      .cls-2 {
        fill: #d02834;
      }

      .cls-3 {
        fill: #0069c7;
      }
    </style>
  </defs>
  <path id="Forma_1_копия" data-name="Forma 1 копия" class="cls-1" d="M1062.96,1298.35a15.33,15.33,0,0,0,20.08,8.1c10.54-4.35,16.11-20.93,16.34-21.63a2.11,2.11,0,0,0-.9-2.45c-0.61-.36-14.89-8.89-26.99-3.9A15.319,15.319,0,0,0,1062.96,1298.35Zm32.04-15.06a2.256,2.256,0,0,1,1.15,2.99c-2.33,5.28-8.32,15.79-13.96,18.11-5.68,2.34-14.79-1.37-17.08-6.92s1.56-14.61,7.23-16.94C1079.18,1277.71,1090.45,1281.28,1095,1283.29Zm-11.12,7.86c-1.07.64-5.32,0.52-5.32,0.52s2.02-3.88,3.09-4.52a2.2,2.2,0,0,1,3.05.85A2.342,2.342,0,0,1,1083.88,1291.15Zm-8.11-4.84a2.231,2.231,0,1,1,4.46,0c0,1.27-2.23,5.02-2.23,5.02S1075.77,1287.58,1075.77,1286.31Zm-3.65,4.84a2.342,2.342,0,0,1-.82-3.15,2.2,2.2,0,0,1,3.05-.85c1.07,0.64,3.09,4.52,3.09,4.52S1073.19,1291.79,1072.12,1291.15Zm0,1.7c1.07-.64,5.32-0.52,5.32-0.52s-2.02,3.88-3.09,4.51a2.193,2.193,0,0,1-3.05-.84A2.342,2.342,0,0,1,1072.12,1292.85Zm8.11,4.84a2.231,2.231,0,1,1-4.46,0c0-1.27,2.23-5.02,2.23-5.02S1080.23,1296.42,1080.23,1297.69Zm3.65-4.84a2.342,2.342,0,0,1,.82,3.15,2.193,2.193,0,0,1-3.05.84c-1.07-.63-3.09-4.51-3.09-4.51S1082.81,1292.21,1083.88,1292.85Z" transform="translate(-1028.47 -1240.22)"/>
  <path id="Forma_1" data-name="Forma 1" class="cls-2" d="M1094.37,1250.51a1.1,1.1,0,0,0-1.53.35l-1.67,2.73a1.136,1.136,0,0,0,.38,1.55l2.62,1.64-1.68,2.76a1.138,1.138,0,0,0,.38,1.55l2.75,1.72a1.114,1.114,0,0,0,1.54-.35l1.68-2.76,2.79,1.74a1.107,1.107,0,0,0,1.53-.36l1.67-2.73a1.138,1.138,0,0,0-.38-1.55l-2.78-1.74,1.59-2.6a1.138,1.138,0,0,0-.38-1.55l-2.75-1.72a1.114,1.114,0,0,0-1.54.35l-1.59,2.61Zm-11.25-3.27a15.188,15.188,0,0,0,5.17,20.82c9.62,5.94,26.17.76,26.87,0.54a2.079,2.079,0,0,0,1.44-2.14c-0.06-.7-1.52-17.12-12.55-23.93A15.188,15.188,0,0,0,1083.12,1247.24Zm30.72,16.96a2.233,2.233,0,0,1-1.73,2.66c-5.59,1.2-17.51,2.5-22.66-.68-5.18-3.2-7.5-12.67-4.37-17.73s12.63-7.24,17.81-4.04C1109.12,1248.26,1112.81,1259.38,1113.84,1264.2Z" transform="translate(-1028.47 -1240.22)"/>
  <path id="Forma_1-2" data-name="Forma 1" class="cls-3" d="M1029.03,1252.01a15.329,15.329,0,0,0,10.86,18.73c10.99,3.05,25.57-6.61,26.18-7.02a2.083,2.083,0,0,0,.79-2.48c-0.25-.66-6.27-16.17-18.88-19.67A15.316,15.316,0,0,0,1029.03,1252.01Zm34.52,7.82a2.242,2.242,0,0,1-.92,3.06c-5.08,2.73-16.27,7.34-22.15,5.7-5.91-1.64-10.82-10.17-9.22-15.96s10.21-10.56,16.12-8.91C1054.51,1245.7,1061.2,1255.44,1063.55,1259.83Zm-15.53-12.39-0.37-.18-8.17,6.29-0.08,10.3,0.38,0.18,8.16-6.28Zm-4.68,14.78,2.42,1.2,4.92-3.78,0.41-.84,0.05-6.19a0.053,0.053,0,0,0-.02-0.03l-2.39-1.19-0.06,6.73Zm10.08-11-4.7-2.34,0.01,0.83,4.36,2.17,1.11,1.08,1.2-.21,0.1-.22-0.55-1.08Z" transform="translate(-1028.47 -1240.22)"/>
</svg>
