<svg xmlns="http://www.w3.org/2000/svg" width="21" height="21" viewBox="0 0 21 21">
  <defs>
    <style>
      .cls-1 {
        fill: #0069c7;
        fill-rule: evenodd;
      }
    </style>
  </defs>
  <path id="Forma_1_копия_20" data-name="Forma 1 копия 20" class="cls-1" d="M985.5,46.1a2.45,2.45,0,1,0-2.45-2.45A2.453,2.453,0,0,0,985.5,46.1Zm0-4.2a1.75,1.75,0,1,1-1.75,1.75A1.752,1.752,0,0,1,985.5,41.9Zm-0.062,14.265,5.369-7.755a7.648,7.648,0,0,0-.623-9.444,6.712,6.712,0,0,0-9.492,0,7.646,7.646,0,0,0-.631,9.433Zm-4.251-16.7a6.012,6.012,0,0,1,8.5,0A6.911,6.911,0,0,1,990.24,48l-4.8,6.934-4.809-6.945A6.908,6.908,0,0,1,981.187,39.46Zm8.554,12.592a0.35,0.35,0,1,0-.082.695c3.681,0.434,5.641,1.6,5.641,2.278,0,0.95-3.728,2.275-9.8,2.275s-9.8-1.325-9.8-2.275c0-.677,1.96-1.844,5.641-2.278a0.35,0.35,0,1,0-.082-0.695c-3.685.434-6.259,1.656-6.259,2.972C975,56.5,978.607,58,985.5,58S996,56.5,996,55.025C996,53.708,993.426,52.486,989.741,52.052Z" transform="translate(-975 -37)"/>
</svg>
