<svg xmlns="http://www.w3.org/2000/svg" width="22" height="21" viewBox="0 0 22 21">
  <defs>
    <style>
      .cls-1 {
        fill: #0069c7;
        fill-rule: evenodd;
      }
    </style>
  </defs>
  <path id="Shape_1_копия" data-name="Shape 1 копия" class="cls-1" d="M1227.77,30.076a11.363,11.363,0,0,0-15.55,0,10.167,10.167,0,0,0,0,14.847A11.2,11.2,0,0,0,1220,48a10.975,10.975,0,0,0,4.5-.869,4.6,4.6,0,0,0,2.39-2.174A2.529,2.529,0,0,0,1226.2,42l-0.03-.03a0.144,0.144,0,0,1,.05-0.043,1.377,1.377,0,0,0-.01-2.083l-1.57-1.5a1.526,1.526,0,0,0-1.07-.467,1.566,1.566,0,0,0-1.09.463l-0.81.778c-0.04-.021-0.08-0.039-0.12-0.056-0.1-.048-0.19-0.091-0.27-0.138a9.445,9.445,0,0,1-2.3-2,5.587,5.587,0,0,1-.69-1.024c0.2-.181.39-0.367,0.58-0.549a2.643,2.643,0,0,1,.24-0.229,1.352,1.352,0,0,0,0-2.091l-0.78-.739c-0.09-.087-0.17-0.169-0.26-0.255-0.17-.168-0.35-0.341-0.54-0.51a1.528,1.528,0,0,0-1.06-.441,1.593,1.593,0,0,0-1.08.441s0,0-.01.008l-0.97.929a2.055,2.055,0,0,0-.66,1.357,4.764,4.764,0,0,0,.37,2.078,12,12,0,0,0,2.2,3.509,13.518,13.518,0,0,0,4.51,3.371,7.428,7.428,0,0,0,2.56.722c0.07,0,.13,0,0.19,0a2.355,2.355,0,0,0,1.76-.722,0.035,0.035,0,0,1,.02-0.017,0.239,0.239,0,0,1,.05-0.052l0.02,0.026a1.541,1.541,0,0,1,.46,1.828c-0.52,1.18-2.54,2.39-5.89,2.39a9.7,9.7,0,0,1-9.91-9.463,9.921,9.921,0,0,1,19.82,0,8.932,8.932,0,0,1-.36,2.523,0.518,0.518,0,0,0,.38.64,0.548,0.548,0,0,0,.67-0.363A10.11,10.11,0,0,0,1227.77,30.076Zm-3.24,12.008a1.231,1.231,0,0,1-.95.38,1.119,1.119,0,0,1-.12,0,6.335,6.335,0,0,1-2.16-.622,12.384,12.384,0,0,1-4.14-3.1,11.029,11.029,0,0,1-2.02-3.2,3.677,3.677,0,0,1-.31-1.633,1.047,1.047,0,0,1,.35-0.709l0.97-.924a0.538,0.538,0,0,1,.32-0.151,0.461,0.461,0,0,1,.31.147,0.012,0.012,0,0,0,.01.013c0.17,0.151.33,0.311,0.51,0.48,0.09,0.087.18,0.177,0.27,0.264l0.77,0.739a0.363,0.363,0,0,1,0,.627l-0.24.233c-0.24.229-.46,0.45-0.71,0.657a0.1,0.1,0,0,0-.02.022,0.7,0.7,0,0,0-.19.773c0.01,0.013.01,0.022,0.02,0.035a5.607,5.607,0,0,0,.94,1.465v0a10.637,10.637,0,0,0,2.56,2.226c0.13,0.074.25,0.134,0.37,0.19a2,2,0,0,1,.26.138c0.02,0.008.03,0.017,0.05,0.026a0.84,0.84,0,0,0,.36.082,0.772,0.772,0,0,0,.54-0.234l0.97-.929a0.5,0.5,0,0,1,.32-0.16,0.437,0.437,0,0,1,.29.151c0.01,0,.01,0,0.01.008l1.57,1.5a0.384,0.384,0,0,1-.01.635l-0.01,0a4.144,4.144,0,0,1-.34.324C1224.9,41.7,1224.71,41.881,1224.53,42.084Z" transform="translate(-1209 -27)"/>
</svg>
