<?xml version="1.0" encoding="UTF-8"?>
<!DOCTYPE svg PUBLIC "-//W3C//DTD SVG 1.1//EN" "http://www.w3.org/Graphics/SVG/1.1/DTD/svg11.dtd">
<!-- Creator: CorelDRAW X7 -->
<svg xmlns="http://www.w3.org/2000/svg" xml:space="preserve" width="240mm" height="45mm" version="1.1" style="shape-rendering:geometricPrecision; text-rendering:geometricPrecision; image-rendering:optimizeQuality; fill-rule:evenodd; clip-rule:evenodd"
viewBox="0 0 24000 4500"
 xmlns:xlink="http://www.w3.org/1999/xlink">
 <defs>
  <style type="text/css">
   <![CDATA[
    .fil0 {fill:#FEFEFE}
    .fil1 {fill:#1E7040}
    .fil2 {fill:#1F7040}
    .fil3 {fill:#1F7140}
    .fil4 {fill:#207140}
    .fil5 {fill:#217241}
    .fil6 {fill:#227241}
    .fil7 {fill:#227341}
    .fil8 {fill:#237341}
    .fil9 {fill:#247441}
    .fil10 {fill:#257441}
    .fil11 {fill:#267541}
    .fil12 {fill:#267542}
    .fil13 {fill:#277542}
    .fil14 {fill:#277642}
    .fil15 {fill:#287642}
    .fil16 {fill:#297642}
    .fil17 {fill:#297742}
    .fil18 {fill:#2A7742}
    .fil19 {fill:#2A7842}
    .fil20 {fill:#2B7842}
    .fil21 {fill:#2C7943}
    .fil22 {fill:#2D7943}
    .fil23 {fill:#2E7A43}
    .fil24 {fill:#2F7A43}
    .fil25 {fill:#307B43}
    .fil26 {fill:#317C43}
    .fil27 {fill:#317C44}
    .fil28 {fill:#327C44}
    .fil29 {fill:#327D44}
    .fil30 {fill:#337D44}
    .fil31 {fill:#347D44}
    .fil32 {fill:#347E44}
    .fil33 {fill:#357E44}
    .fil34 {fill:#367F44}
    .fil35 {fill:#377F45}
    .fil36 {fill:#378045}
    .fil37 {fill:#388045}
    .fil38 {fill:#398145}
    .fil39 {fill:#3A8145}
    .fil40 {fill:#3B8245}
    .fil41 {fill:#3C8245}
    .fil42 {fill:#3C8346}
    .fil43 {fill:#3D8346}
    .fil44 {fill:#3E8346}
    .fil45 {fill:#3E8446}
    .fil46 {fill:#3F8446}
    .fil47 {fill:#3F8546}
    .fil48 {fill:#408546}
    .fil49 {fill:#418546}
    .fil50 {fill:#418646}
    .fil51 {fill:#428647}
    .fil52 {fill:#438747}
    .fil53 {fill:#448747}
    .fil54 {fill:#458847}
    .fil55 {fill:#468947}
    .fil56 {fill:#478948}
    .fil57 {fill:#488A48}
    .fil58 {fill:#498A48}
    .fil59 {fill:#498B48}
    .fil60 {fill:#4A8B48}
    .fil61 {fill:#4B8C48}
    .fil62 {fill:#4C8C48}
    .fil63 {fill:#4D8D49}
    .fil64 {fill:#4E8E49}
    .fil65 {fill:#4F8E49}
    .fil66 {fill:#508F49}
    .fil67 {fill:#518F49}
    .fil68 {fill:#519049}
    .fil69 {fill:#52904A}
    .fil70 {fill:#53904A}
    .fil71 {fill:#53914A}
    .fil72 {fill:#54914A}
    .fil73 {fill:#54924A}
    .fil74 {fill:#55924A}
    .fil75 {fill:#56924A}
    .fil76 {fill:#56934A}
    .fil77 {fill:#57934A}
    .fil78 {fill:#57934B}
    .fil79 {fill:#58944B}
    .fil80 {fill:#59944B}
    .fil81 {fill:#5A954B}
    .fil82 {fill:#5B954B}
    .fil83 {fill:#5B964B}
    .fil84 {fill:#5C964B}
    .fil85 {fill:#5D974C}
    .fil86 {fill:#5E974C}
    .fil87 {fill:#5E984C}
    .fil88 {fill:#5F984C}
    .fil89 {fill:#60984C}
    .fil90 {fill:#60994C}
    .fil91 {fill:#61994C}
    .fil92 {fill:#629A4C}
    .fil93 {fill:#629A4D}
    .fil94 {fill:#639B4D}
    .fil95 {fill:#649B4D}
    .fil96 {fill:#659C4D}
    .fil97 {fill:#669C4D}
    .fil98 {fill:#679D4D}
    .fil99 {fill:#689D4E}
    .fil100 {fill:#689E4E}
    .fil101 {fill:#699E4E}
    .fil102 {fill:#699F4E}
    .fil103 {fill:#6A9F4E}
    .fil104 {fill:#6B9F4E}
    .fil105 {fill:#6BA04E}
    .fil106 {fill:#6CA04E}
    .fil107 {fill:#6DA14F}
    .fil108 {fill:#6EA14F}
    .fil109 {fill:#6FA24F}
    .fil110 {fill:#70A24F}
    .fil111 {fill:#70A34F}
    .fil112 {fill:#71A34F}
    .fil113 {fill:#72A44F}
    .fil114 {fill:#73A450}
    .fil115 {fill:#73A550}
    .fil116 {fill:#74A550}
    .fil117 {fill:#75A550}
    .fil118 {fill:#75A650}
    .fil119 {fill:#76A650}
    .fil120 {fill:#77A750}
    .fil121 {fill:#78A750}
    .fil122 {fill:#78A851}
    .fil123 {fill:#79A851}
    .fil124 {fill:#7AA951}
    .fil125 {fill:#7BAA51}
    .fil126 {fill:#7CAA51}
    .fil127 {fill:#7DAB52}
    .fil128 {fill:#7EAB52}
    .fil129 {fill:#7FAC52}
    .fil130 {fill:#80AC52}
    .fil131 {fill:#81AD52}
    .fil132 {fill:#82AE52}
    .fil133 {fill:#83AE53}
    .fil134 {fill:#84AF53}
    .fil135 {fill:#85AF53}
    .fil136 {fill:#86B053}
    .fil137 {fill:#87B153}
    .fil138 {fill:#88B153}
    .fil139 {fill:#89B254}
    .fil140 {fill:#8AB254}
    .fil141 {fill:#8BB354}
    .fil142 {fill:#8CB454}
    .fil143 {fill:#8DB454}
    .fil144 {fill:#8DB554}
    .fil145 {fill:#8EB555}
    .fil146 {fill:#8FB655}
    .fil147 {fill:#90B655}
    .fil148 {fill:#91B755}
    .fil149 {fill:#92B855}
    .fil150 {fill:#93B856}
    .fil151 {fill:#94B956}
    .fil152 {fill:#95B956}
    .fil153 {fill:#96BA56}
    .fil154 {fill:#97BB56}
    .fil155 {fill:#98BB56}
    .fil156 {fill:#99BC57}
    .fil157 {fill:#9ABC57}
    .fil158 {fill:#9BBD57}
    .fil159 {fill:#9CBE57}
    .fil160 {fill:#9DBE57}
    .fil161 {fill:#9EBF57}
    .fil162 {fill:#9FBF58}
    .fil163 {fill:#A0C058}
    .fil164 {fill:#A1C058}
    .fil165 {fill:#A2C158}
    .fil166 {fill:#A2C258}
    .fil167 {fill:#A3C259}
    .fil168 {fill:#A4C359}
    .fil169 {fill:#A5C359}
    .fil170 {fill:#A6C459}
    .fil171 {fill:#A7C559}
    .fil172 {fill:#A8C559}
    .fil173 {fill:#A9C65A}
    .fil174 {fill:#AAC65A}
    .fil175 {fill:#ABC75A}
    .fil176 {fill:#ACC85A}
    .fil177 {fill:#ADC85A}
    .fil178 {fill:#AEC95A}
    .fil179 {fill:#AFC95B}
    .fil180 {fill:#B0CA5B}
    .fil181 {fill:#B1CA5B}
    .fil182 {fill:#B2CB5B}
    .fil183 {fill:#B3CC5B}
    .fil184 {fill:#B4CC5C}
    .fil185 {fill:#B5CD5C}
    .fil186 {fill:#B6CD5C}
    .fil187 {fill:#B7CE5C}
    .fil188 {fill:#B7CF5C}
    .fil189 {fill:#B8CF5C}
    .fil190 {fill:#B9D05D}
    .fil191 {fill:#BAD05D}
    .fil192 {fill:#BBD15D}
    .fil193 {fill:#BCD25D}
    .fil194 {fill:#BDD25D}
    .fil195 {fill:#BED35D}
    .fil196 {fill:#BFD35E}
    .fil197 {fill:#C0D45E}
    .fil198 {fill:#C1D45E}
    .fil199 {fill:#C2D55E}
    .fil200 {fill:#C3D65E}
    .fil201 {fill:#818181;fill-rule:nonzero}
   ]]>
  </style>
 </defs>
 <g id="Слой_x0020_1">
  <metadata id="CorelCorpID_0Corel-Layer"/>
  <polygon class="fil0" points="17532,2174 17511,3321 15819,4327 14127,3331 14128,2945 15818,3940 17181,3130 17195,2379 15827,1574 15490,1792 15498,2576 14796,2149 14821,1753 15858,1189 "/>
  <polygon class="fil1" points="16452,3181 16845,2915 16845,2959 16843,2960 "/>
  <polygon class="fil2" points="16325,3253 16845,2901 16845,2922 16513,3147 "/>
  <polygon class="fil3" points="16191,3329 16845,2885 16845,2907 16384,3220 "/>
  <polygon class="fil4" points="16062,3403 16845,2871 16845,2893 16260,3290 "/>
  <polygon class="fil4" points="15938,3473 16845,2857 16845,2879 16131,3364 "/>
  <polygon class="fil5" points="15816,3541 16845,2842 16845,2864 16003,3436 15816,3542 "/>
  <polygon class="fil6" points="15804,3535 16845,2828 16845,2850 15872,3511 15816,3542 "/>
  <polygon class="fil7" points="15793,3528 16845,2813 16845,2835 15810,3538 "/>
  <polygon class="fil8" points="15781,3521 16845,2798 16845,2821 15799,3531 "/>
  <polygon class="fil8" points="15770,3515 16845,2784 16845,2806 15787,3525 "/>
  <polygon class="fil9" points="15759,3508 16845,2770 16845,2792 15776,3518 "/>
  <polygon class="fil9" points="15747,3501 16845,2756 16845,2778 15765,3511 "/>
  <polygon class="fil10" points="15736,3495 16845,2741 16845,2762 15752,3504 "/>
  <polygon class="fil11" points="15724,3487 16845,2726 16845,2748 15741,3498 "/>
  <polygon class="fil12" points="15713,3481 16845,2712 16845,2734 15730,3491 "/>
  <polygon class="fil13" points="15701,3474 16845,2697 16845,2719 15719,3484 "/>
  <polygon class="fil14" points="15690,3468 16845,2683 16845,2705 15708,3478 "/>
  <polygon class="fil15" points="15679,3461 16845,2669 16845,2690 15695,3471 "/>
  <polygon class="fil16" points="15667,3454 16845,2654 16845,2676 15684,3464 "/>
  <polygon class="fil17" points="15656,3447 16845,2639 16845,2661 15673,3457 "/>
  <polygon class="fil18" points="15644,3441 16845,2625 16845,2647 15661,3451 "/>
  <polygon class="fil19" points="15633,3434 16845,2611 16845,2633 15650,3444 "/>
  <polygon class="fil20" points="15622,3427 16845,2596 16845,2618 15638,3437 "/>
  <polygon class="fil20" points="15610,3421 16844,2582 16845,2583 16845,2603 15627,3431 "/>
  <polygon class="fil21" points="15599,3414 16833,2575 16845,2583 16845,2589 15616,3424 "/>
  <polygon class="fil22" points="15587,3407 16821,2568 16839,2579 15604,3417 "/>
  <polygon class="fil22" points="15576,3400 16810,2562 16827,2572 15593,3411 "/>
  <polygon class="fil23" points="15565,3394 16799,2555 16816,2565 15582,3404 "/>
  <polygon class="fil23" points="15553,3387 16788,2548 16805,2559 15570,3397 "/>
  <polygon class="fil24" points="15542,3380 16776,2542 16793,2551 15559,3390 "/>
  <polygon class="fil25" points="15530,3373 16765,2535 16782,2545 15547,3383 "/>
  <polygon class="fil25" points="15519,3367 16753,2528 16771,2538 15536,3377 "/>
  <polygon class="fil26" points="15507,3360 16027,3007 16157,2930 16157,2919 16742,2521 16759,2531 15525,3370 "/>
  <path class="fil27" d="M15496 3353l356 -242 262 -156 -601 408 -17 -10zm661 -449l574 -390 17 11 -591 401 0 -22z"/>
  <path class="fil28" d="M15485 3347l323 -219 8 5 118 -71 -433 294 -16 -9zm672 -457l563 -382 16 10 -579 393 0 -21z"/>
  <path class="fil29" d="M15473 3340l323 -220 17 11 -323 219 -17 -10zm684 -465l551 -374 17 10 -568 386 0 -22z"/>
  <path class="fil30" d="M15461 3333l323 -219 18 10 -323 219 -18 -10zm696 -473l540 -366 17 10 -557 378 0 -22z"/>
  <path class="fil31" d="M15450 3326l323 -219 17 10 -323 219 -17 -10zm707 -480l529 -359 17 10 -546 371 0 -22z"/>
  <path class="fil32" d="M15439 3320l323 -220 17 11 -323 219 -17 -10zm719 -489l516 -351 18 11 -535 363 1 -23z"/>
  <path class="fil33" d="M15428 3313l323 -219 16 10 -323 219 -16 -10zm730 -496l505 -343 17 10 -522 355 0 -22z"/>
  <path class="fil33" d="M15416 3306l323 -219 17 10 -323 219 -17 -10zm742 -504l494 -335 16 10 -510 347 0 -22z"/>
  <path class="fil34" d="M15404 3299l323 -219 18 10 -323 220 -18 -11zm754 -512l482 -327 17 10 -499 339 0 -22z"/>
  <path class="fil35" d="M15393 3293l323 -220 17 11 -323 219 -17 -10zm765 -520l471 -320 17 11 -488 331 0 -22z"/>
  <path class="fil36" d="M15382 3286l323 -219 17 10 -323 219 -17 -10zm776 -527l460 -312 17 10 -477 324 0 -22z"/>
  <path class="fil37" d="M15371 3280l323 -220 16 10 -323 219 -16 -9zm788 -536l448 -304 16 10 -465 316 1 -22z"/>
  <path class="fil37" d="M15359 3273l323 -220 17 10 -323 219 -17 -9zm800 -543l436 -297 17 10 -454 308 1 -21z"/>
  <path class="fil38" d="M15347 3266l323 -220 17 11 -322 219 -18 -10zm812 -552l424 -288 18 10 -442 300 0 -22z"/>
  <path class="fil38" d="M15336 3259l323 -219 17 10 -323 219 -17 -10zm823 -559l413 -281 17 11 -430 292 0 -22zm1375 -934l5 -4 0 7 -5 -3z"/>
  <path class="fil39" d="M15325 3252l323 -219 17 10 -323 220 -17 -11zm834 -566l402 -273 17 10 -419 285 0 -22zm1364 -926l17 -12 -1 21 -16 -9z"/>
  <path class="fil40" d="M15313 3246l324 -220 17 11 -323 219 -18 -10zm846 -575l391 -265 17 10 -408 277 0 -22zm1352 -918l29 -20 0 22 -12 8 -17 -10z"/>
  <path class="fil40" d="M15302 3239l323 -219 17 10 -323 219 -17 -10zm857 -582l379 -258 17 10 -396 269 0 -21zm1341 -911l40 -27 0 22 -23 15 -17 -10z"/>
  <path class="fil41" d="M15290 3232l324 -219 16 10 -323 219 -17 -10zm870 -590l367 -250 17 10 -385 261 1 -21zm1329 -902l51 -36 0 21 -35 24 -16 -9z"/>
  <path class="fil42" d="M15279 3226l323 -220 17 10 -323 220 -17 -10zm881 -599l355 -242 18 11 -373 253 0 -22zm1317 -895l64 -43 -1 22 -46 32 -17 -11z"/>
  <path class="fil43" d="M15267 3219l324 -220 17 11 -323 219 -18 -10zm893 -606l344 -234 18 10 -362 246 0 -22zm1305 -887l76 -51 0 22 -58 39 -18 -10z"/>
  <path class="fil44" d="M15256 3212l323 -219 17 10 -323 219 -17 -10zm904 -614l333 -226 17 10 -350 238 0 -22zm1294 -879l87 -59 0 22 -70 47 -17 -10z"/>
  <path class="fil45" d="M15245 3206l323 -220 17 10 -323 220 -17 -10zm915 -622l322 -219 17 10 -339 231 0 -22zm1283 -872l99 -67 -1 23 -81 55 -17 -11z"/>
  <path class="fil46" d="M15234 3199l323 -220 16 10 -323 220 -16 -10zm926 -629l311 -211 16 9 -327 223 0 -21zm1272 -864l110 -75 -1 21 -93 64 -16 -10z"/>
  <path class="fil47" d="M15222 3192l323 -220 17 10 -323 220 -17 -10zm939 -638l298 -203 17 11 -316 214 1 -22zm1258 -855l123 -84 0 23 -105 71 -18 -10z"/>
  <path class="fil48" d="M15210 3185l323 -219 18 10 -323 219 -18 -10zm951 -645l287 -195 17 10 -305 207 1 -22zm1247 -848l134 -91 0 22 -117 79 -17 -10z"/>
  <path class="fil49" d="M15199 3179l323 -220 17 10 -323 220 -17 -10zm962 -654l275 -187 17 10 -292 199 0 -22zm1236 -840l146 -99 -1 22 -128 88 -17 -11z"/>
  <path class="fil50" d="M15188 3172l323 -220 17 11 -323 219 -17 -10zm973 -661l264 -180 18 11 -282 191 0 -22zm1224 -832l158 -107 0 22 -140 95 -18 -10z"/>
  <path class="fil51" d="M15177 3165l323 -219 16 10 -323 219 -16 -10zm984 -668l253 -172 17 10 -270 183 0 -21zm1213 -825l169 -114 0 22 -152 102 -17 -10z"/>
  <path class="fil51" d="M15165 3158l323 -219 17 10 -323 219 -17 -10zm996 -677l241 -163 17 10 -258 175 0 -22zm1202 -816l180 -122 0 22 -163 110 -17 -10z"/>
  <path class="fil52" d="M15153 3152l323 -220 18 10 -323 220 -18 -10zm1008 -685l230 -156 17 10 -247 168 0 -22zm1190 -808l193 -131 -1 22 -175 119 -17 -10z"/>
  <path class="fil52" d="M15142 3145l323 -220 17 10 -323 220 -17 -10zm1020 -693l218 -148 17 10 -236 160 1 -22zm1178 -800l204 -139 0 22 -187 127 -17 -10z"/>
  <path class="fil53" d="M15130 3138l324 -219 17 10 -323 220 -18 -11zm1032 -700l206 -141 18 11 -224 152 0 -22zm1166 -793l216 -147 0 23 -198 134 -18 -10z"/>
  <path class="fil54" d="M15119 3132l324 -220 16 10 -323 219 -17 -9zm1043 -708l195 -133 17 10 -212 144 0 -21zm1155 -785l228 -155 -1 22 -210 143 -17 -10z"/>
  <path class="fil54" d="M15108 3125l323 -220 17 10 -324 220 -16 -10zm1054 -716l184 -125 17 10 -201 136 0 -21zm1144 -777l239 -163 -1 22 -221 151 -17 -10z"/>
  <path class="fil55" d="M15096 3118l323 -220 18 11 -324 219 -17 -10zm1066 -724l172 -117 17 10 -189 129 0 -22zm1132 -769l251 -171 0 22 -234 159 -17 -10z"/>
  <path class="fil55" d="M15085 3111l323 -219 17 10 -323 219 -17 -10zm1077 -732l161 -109 17 10 -178 121 0 -22zm1121 -761l262 -178 0 22 -245 166 -17 -10z"/>
  <path class="fil56" d="M15073 3105l324 -220 17 10 -323 220 -18 -10zm1090 -740l149 -102 17 11 -167 113 1 -22zm1108 -754l275 -186 -1 23 -256 174 -18 -11z"/>
  <path class="fil57" d="M15062 3098l324 -220 17 10 -324 220 -17 -10zm1101 -747l138 -94 17 10 -156 105 1 -21zm1097 -746l286 -194 -1 22 -268 182 -17 -10z"/>
  <path class="fil57" d="M15051 3091l323 -219 17 9 -324 220 -16 -10zm1112 -755l126 -86 17 10 -143 97 0 -21zm1086 -738l297 -202 0 22 -280 190 -17 -10z"/>
  <path class="fil58" d="M15039 3084l323 -219 18 10 -324 220 -17 -11zm1124 -763l115 -78 17 10 -132 90 0 -22zm1075 -729l305 -207 3 2 0 16 -292 198 -16 -9z"/>
  <path class="fil59" d="M15028 3078l323 -220 17 10 -323 220 -17 -10zm1135 -772l103 -70 17 10 -120 82 0 -22zm1063 -721l304 -208 16 10 0 1 -303 207 -17 -10z"/>
  <path class="fil60" d="M15016 3071l324 -220 17 11 -323 219 -18 -10zm1147 -779l92 -63 17 11 -109 74 0 -22zm1051 -714l305 -207 18 10 -305 207 -18 -10z"/>
  <path class="fil60" d="M15005 3064l324 -219 17 10 -324 220 -17 -11zm1158 -786l81 -55 17 10 -98 66 0 -21zm1040 -707l305 -207 17 10 -305 207 -17 -10z"/>
  <path class="fil61" d="M14994 3058l323 -220 17 10 -324 219 -16 -9zm1170 -795l69 -47 17 10 -87 59 1 -22zm1028 -698l304 -208 18 11 -305 207 -17 -10z"/>
  <path class="fil62" d="M14982 3051l324 -220 17 10 -324 220 -17 -10zm1182 -802l58 -40 16 10 -74 51 0 -21zm1017 -691l304 -207 17 10 -305 207 -16 -10z"/>
  <path class="fil62" d="M14970 3044l324 -220 17 10 -323 220 -18 -10zm1194 -811l46 -31 17 10 -63 43 0 -22zm1004 -682l305 -207 17 10 -304 207 -18 -10z"/>
  <path class="fil63" d="M14959 3037l324 -219 17 10 -323 220 -18 -11zm1205 -818l34 -24 18 11 -52 35 0 -22zm993 -675l305 -207 17 10 -305 207 -17 -10z"/>
  <path class="fil63" d="M14948 3031l324 -220 17 10 -324 220 -17 -10zm1216 -826l23 -16 17 10 -40 27 0 -21zm982 -667l305 -208 17 11 -305 207 -17 -10z"/>
  <path class="fil64" d="M14937 3024l323 -220 17 10 -323 220 -17 -10zm1227 -834l12 -8 17 10 -29 20 0 -22zm970 -659l305 -207 18 10 -305 207 -18 -10z"/>
  <path class="fil65" d="M14925 3017l324 -219 16 9 -323 220 -17 -10zm1240 -841l0 -1 16 10 -17 12 1 -21zm958 -652l305 -207 17 10 -305 207 -17 -10z"/>
  <path class="fil65" d="M14913 3011l324 -220 17 10 -324 220 -17 -10zm2199 -1493l305 -208 16 10 -305 207 -16 -9zm-942 660l-6 4 1 -7 5 3z"/>
  <path class="fil66" d="M14902 3004l323 -220 18 10 -324 220 -17 -10zm2198 -1494l305 -207 17 11 -305 207 -17 -11z"/>
  <path class="fil66" d="M14891 2997l323 -220 18 10 -324 220 -17 -10zm2198 -1493l305 -207 17 10 -305 207 -17 -10z"/>
  <path class="fil67" d="M14879 2990l324 -219 17 10 -324 220 -17 -11zm2198 -1493l305 -207 18 10 -305 207 -18 -10z"/>
  <path class="fil68" d="M14868 2984l324 -220 17 10 -324 220 -17 -10zm2198 -1493l305 -207 17 10 -305 207 -17 -10z"/>
  <path class="fil69" d="M14856 2977l324 -220 17 10 -324 220 -17 -10zm2199 -1493l305 -207 16 9 -305 208 -16 -10z"/>
  <path class="fil70" d="M14845 2970l323 -220 18 10 -324 220 -17 -10zm2198 -1493l305 -207 17 10 -305 207 -17 -10z"/>
  <path class="fil71" d="M14834 2964l323 -220 17 10 -323 220 -17 -10zm2198 -1494l305 -207 17 10 -305 207 -17 -10z"/>
  <path class="fil72" d="M14822 2957l324 -220 17 10 -324 220 -17 -10zm2198 -1493l305 -208 18 11 -305 207 -18 -10z"/>
  <path class="fil73" d="M14811 2950l324 -220 17 10 -324 220 -17 -10zm2198 -1493l305 -207 17 10 -305 207 -17 -10z"/>
  <path class="fil74" d="M14800 2944l323 -220 17 9 -324 220 -16 -9zm2198 -1494l305 -207 16 10 -304 207 -17 -10z"/>
  <path class="fil75" d="M14788 2936l324 -219 17 10 -324 220 -17 -11zm2199 -1492l305 -207 16 9 -305 207 -16 -9z"/>
  <path class="fil76" d="M14776 2930l324 -220 17 10 -323 220 -18 -10zm2199 -1493l304 -207 18 10 -305 207 -17 -10z"/>
  <path class="fil77" d="M14765 2923l324 -220 17 10 -324 220 -17 -10zm2198 -1493l305 -207 17 10 -304 207 -18 -10z"/>
  <path class="fil78" d="M14754 2916l323 -220 18 11 -324 220 -17 -11zm2198 -1493l305 -207 17 10 -305 207 -17 -10z"/>
  <path class="fil79" d="M14743 2910l323 -220 17 10 -324 220 -16 -10zm2198 -1493l304 -207 18 10 -305 207 -17 -10z"/>
  <path class="fil80" d="M14730 2903l324 -220 18 10 -324 220 -18 -10zm2199 -1493l305 -207 17 10 -305 207 -17 -10z"/>
  <path class="fil80" d="M14719 2896l324 -220 17 10 -324 220 -17 -10zm2198 -1493l305 -207 17 10 -304 207 -18 -10z"/>
  <path class="fil81" d="M14708 2890l324 -221 17 11 -324 220 -17 -10zm2198 -1494l305 -207 17 10 -305 207 -17 -10z"/>
  <path class="fil81" d="M14697 2883l324 -220 17 10 -324 220 -17 -10zm2198 -1493l305 -207 17 10 -305 207 -17 -10z"/>
  <path class="fil82" d="M14685 2876l324 -220 17 10 -324 220 -17 -10zm2198 -1493l305 -207 18 10 -305 207 -18 -10z"/>
  <path class="fil83" d="M14674 2870l324 -220 17 9 -324 220 -17 -9zm2198 -1494l305 -207 17 10 -305 207 -17 -10z"/>
  <path class="fil84" d="M14662 2863l324 -220 17 10 -324 220 -17 -10zm2199 -1493l305 -207 16 9 -305 207 -16 -9z"/>
  <path class="fil85" d="M14651 2856l324 -220 17 10 -324 220 -17 -10zm2198 -1493l305 -208 17 11 -305 207 -17 -10z"/>
  <path class="fil85" d="M14640 2849l324 -220 17 10 -324 220 -17 -10zm2198 -1493l305 -207 17 10 -305 207 -17 -10z"/>
  <path class="fil86" d="M14628 2843l324 -220 17 10 -324 220 -17 -10zm2198 -1494l305 -207 18 11 -305 207 -18 -11z"/>
  <path class="fil87" d="M14617 2836l324 -220 17 10 -324 220 -17 -10zm2198 -1493l305 -207 17 10 -305 207 -17 -10z"/>
  <path class="fil88" d="M14605 2829l324 -220 17 10 -324 220 -17 -10zm2199 -1493l305 -207 16 10 -305 207 -16 -10z"/>
  <path class="fil89" d="M14594 2822l324 -220 17 10 -324 221 -17 -11zm2198 -1493l305 -207 17 10 -305 207 -17 -10z"/>
  <path class="fil90" d="M14583 2816l324 -220 17 10 -324 220 -17 -10zm2198 -1494l305 -207 17 10 -305 207 -17 -10z"/>
  <path class="fil91" d="M14571 2809l324 -220 17 10 -324 220 -17 -10zm2198 -1493l305 -207 18 10 -305 207 -18 -10z"/>
  <path class="fil91" d="M14560 2802l324 -220 17 10 -324 221 -17 -11zm2198 -1493l305 -207 17 10 -305 207 -17 -10z"/>
  <path class="fil92" d="M14549 2796l324 -220 16 9 -324 220 -16 -9zm2198 -1494l305 -207 16 10 -305 207 -16 -10z"/>
  <path class="fil93" d="M14536 2789l325 -221 17 11 -324 220 -18 -10zm2199 -1493l305 -207 17 9 -305 208 -17 -10z"/>
  <path class="fil94" d="M14525 2782l325 -220 17 10 -325 220 -17 -10zm2199 -1493l304 -207 17 10 -304 207 -17 -10z"/>
  <path class="fil95" d="M14514 2775l324 -220 17 10 -324 220 -17 -10zm2198 -1493l305 -207 17 10 -304 207 -18 -10z"/>
  <path class="fil95" d="M14502 2769l325 -221 17 11 -324 220 -18 -10zm2199 -1494l305 -207 17 10 -305 208 -17 -11z"/>
  <path class="fil96" d="M14491 2762l325 -220 16 10 -324 220 -17 -10zm2199 -1493l304 -207 17 10 -304 207 -17 -10z"/>
  <path class="fil96" d="M14479 2755l325 -220 17 10 -324 220 -18 -10zm2199 -1493l305 -207 17 10 -305 207 -17 -10z"/>
  <path class="fil97" d="M14468 2749l324 -221 18 10 -325 221 -17 -10zm2198 -1494l305 -207 17 10 -304 207 -18 -10z"/>
  <path class="fil98" d="M14457 2742l324 -221 17 11 -324 220 -17 -10zm2198 -1494l305 -207 17 11 -305 207 -17 -11z"/>
  <path class="fil98" d="M14445 2735l325 -220 17 10 -324 220 -18 -10zm2199 -1493l305 -207 17 10 -305 207 -17 -10z"/>
  <path class="fil99" d="M14434 2729l325 -221 17 10 -325 221 -17 -10zm2199 -1494l304 -207 17 10 -304 207 -17 -10z"/>
  <path class="fil100" d="M14423 2722l324 -221 17 10 -324 221 -17 -10zm2198 -1494l305 -207 17 10 -305 207 -17 -10z"/>
  <path class="fil101" d="M14411 2715l325 -220 16 10 -324 220 -17 -10zm2199 -1493l305 -207 16 9 -305 207 -16 -9z"/>
  <path class="fil102" d="M14400 2708l324 -220 17 10 -324 220 -17 -10zm2198 -1493l305 -207 17 10 -305 207 -17 -10z"/>
  <path class="fil103" d="M14388 2701l325 -220 17 10 -324 221 -18 -11zm2199 -1493l305 -207 17 10 -305 207 -17 -10z"/>
  <path class="fil104" d="M14377 2695l324 -221 18 11 -325 220 -17 -10zm2198 -1494l305 -207 17 10 -305 207 -17 -10z"/>
  <path class="fil105" d="M14366 2688l324 -220 17 10 -325 220 -16 -10zm2198 -1493l305 -207 17 10 -305 207 -17 -10z"/>
  <path class="fil106" d="M14354 2681l324 -220 17 10 -324 220 -17 -10zm2199 -1493l305 -207 16 10 -305 207 -16 -10z"/>
  <path class="fil106" d="M14342 2674l325 -220 17 10 -325 221 -17 -11zm2199 -1493l305 -207 17 10 -305 207 -17 -10z"/>
  <path class="fil107" d="M14331 2668l324 -221 18 11 -325 220 -17 -10zm2199 -1494l304 -207 18 10 -305 208 -17 -11z"/>
  <path class="fil108" d="M14320 2661l324 -220 17 10 -324 220 -17 -10zm2198 -1493l305 -207 17 10 -305 207 -17 -10z"/>
  <path class="fil108" d="M14308 2655l325 -221 17 10 -324 221 -18 -10zm2199 -1494l305 -207 17 10 -305 207 -17 -10z"/>
  <path class="fil109" d="M14297 2648l325 -220 16 9 -324 221 -17 -10zm2199 -1494l305 -207 16 10 -305 207 -16 -10z"/>
  <path class="fil109" d="M14285 2641l325 -221 17 10 -325 221 -17 -10zm2199 -1493l305 -207 17 10 -305 207 -17 -10z"/>
  <path class="fil110" d="M14274 2634l324 -220 18 10 -325 220 -17 -10zm2199 -1493l304 -207 17 10 -304 207 -17 -10z"/>
  <path class="fil111" d="M14263 2628l324 -221 17 10 -324 221 -17 -10zm2198 -1494l305 -207 17 10 -305 207 -17 -10z"/>
  <path class="fil112" d="M14251 2621l325 -221 17 11 -324 220 -18 -10zm2199 -1494l304 -207 18 11 -305 207 -17 -11z"/>
  <path class="fil113" d="M14240 2614l325 -220 16 10 -324 220 -17 -10zm2199 -1493l304 -207 17 10 -304 207 -17 -10z"/>
  <path class="fil113" d="M14228 2607l325 -220 17 10 -325 220 -17 -10zm2199 -1493l305 -207 17 10 -305 207 -17 -10z"/>
  <path class="fil114" d="M14217 2600l324 -220 18 10 -325 221 -17 -11zm2198 -1493l305 -207 17 10 -304 207 -18 -10z"/>
  <path class="fil115" d="M14206 2594l324 -221 17 11 -324 220 -17 -10zm2198 -1494l305 -207 17 11 -305 207 -17 -11z"/>
  <path class="fil116" d="M14194 2587l325 -220 17 10 -324 221 -18 -11zm2199 -1493l305 -207 17 10 -305 207 -17 -10z"/>
  <path class="fil117" d="M14183 2581l325 -221 17 10 -325 221 -17 -10zm2199 -1494l304 -207 17 10 -304 207 -17 -10z"/>
  <path class="fil118" d="M14172 2574l324 -221 17 10 -325 221 -16 -10zm2198 -1494l305 -207 17 10 -305 207 -17 -10z"/>
  <path class="fil119" d="M14159 2567l325 -221 18 11 -325 220 -18 -10zm2199 -1494l305 -207 17 11 -305 207 -17 -11z"/>
  <path class="fil119" d="M14148 2560l325 -220 17 10 -324 220 -18 -10zm2199 -1493l305 -207 17 10 -305 207 -17 -10z"/>
  <path class="fil120" d="M14137 2554l326 -222 0 2 16 9 -324 221 -18 -10zm2199 -1494l305 -207 17 10 -305 207 -17 -10z"/>
  <path class="fil121" d="M14129 2545l334 -227 0 16 5 3 -325 220 -14 -8 0 -4zm2195 -1492l305 -207 17 11 -304 207 -18 -11z"/>
  <path class="fil122" d="M14129 2530l334 -226 0 21 -332 225 -2 -1 0 -19zm2184 -1483l305 -207 17 10 -305 207 -17 -10z"/>
  <path class="fil123" d="M14129 2516l334 -227 0 21 -334 227 0 -21zm2173 -1476l305 -207 16 10 -305 207 -16 -10z"/>
  <path class="fil123" d="M14129 2501l334 -227 0 22 -334 227 0 -22zm2161 -1468l304 -207 18 10 -305 207 -17 -10z"/>
  <path class="fil124" d="M14129 2486l334 -226 0 22 -334 227 0 -23zm2150 -1460l304 -206 18 10 -305 207 -17 -11z"/>
  <path class="fil124" d="M14129 2472l334 -226 0 21 -334 227 0 -22zm2138 -1452l305 -207 17 10 -305 207 -17 -10z"/>
  <path class="fil125" d="M14129 2458l334 -227 0 22 -334 227 0 -22zm2127 -1445l305 -207 17 10 -305 207 -17 -10z"/>
  <path class="fil126" d="M14129 2444l334 -227 0 21 -334 227 0 -21zm2116 -1437l305 -207 16 9 -305 207 -16 -9z"/>
  <path class="fil127" d="M14129 2428l334 -226 0 21 -334 227 0 -22zm2104 -1429l304 -207 18 11 -305 207 -17 -11z"/>
  <path class="fil128" d="M14129 2414l334 -227 0 22 -334 227 0 -22zm2093 -1421l304 -207 17 10 -304 207 -17 -10z"/>
  <path class="fil129" d="M14129 2400l334 -227 0 22 -334 227 0 -22zm2081 -1414l305 -207 17 10 -305 207 -17 -10z"/>
  <path class="fil130" d="M14129 2385l334 -226 0 22 -334 227 0 -23zm2070 -1406l304 -207 18 11 -305 207 -17 -11z"/>
  <path class="fil131" d="M14129 2371l334 -226 0 20 -334 227 0 -21zm2059 -1398l304 -207 17 10 -304 207 -17 -10z"/>
  <path class="fil132" d="M14129 2356l334 -227 0 22 -334 227 0 -22zm2047 -1390l305 -207 17 10 -305 207 -17 -10z"/>
  <path class="fil133" d="M14129 2341l334 -226 0 22 -334 227 0 -23zm2035 -1382l305 -207 17 10 -304 207 -18 -10z"/>
  <path class="fil134" d="M14129 2327l334 -226 0 21 -334 227 0 -22zm2024 -1375l305 -207 17 11 -305 207 -17 -11z"/>
  <path class="fil135" d="M14129 2313l334 -227 0 22 -334 227 0 -22zm2013 -1367l304 -207 18 10 -305 207 -17 -10z"/>
  <path class="fil136" d="M14129 2299l334 -227 0 21 -334 227 0 -21zm2002 -1360l304 -207 17 10 -305 207 -16 -10z"/>
  <path class="fil137" d="M14129 2284l334 -227 0 21 -334 227 0 -21zm1990 -1352l305 -207 17 10 -305 207 -17 -10z"/>
  <path class="fil138" d="M14129 2269l334 -227 0 22 -334 227 0 -22zm1978 -1343l305 -207 17 10 -304 207 -18 -10z"/>
  <path class="fil139" d="M14129 2255l334 -227 0 22 -334 227 0 -22zm1967 -1336l305 -207 17 10 -305 207 -17 -10z"/>
  <path class="fil140" d="M14129 2240l334 -227 0 23 -334 227 0 -23zm1955 -1328l305 -207 18 10 -305 207 -18 -10z"/>
  <path class="fil141" d="M14129 2226l334 -227 0 22 -334 227 0 -22zm1944 -1320l305 -207 17 10 -304 207 -18 -10z"/>
  <path class="fil142" d="M14129 2212l334 -227 0 21 -334 227 0 -21zm1933 -1313l305 -207 17 10 -305 207 -17 -10z"/>
  <path class="fil143" d="M14130 2196l333 -226 0 22 -334 227 1 -23zm1921 -1304l304 -207 17 10 -305 207 -16 -10z"/>
  <path class="fil144" d="M14130 2182l333 -226 0 21 -334 227 1 -22zm1909 -1297l304 -207 18 10 -305 207 -17 -10z"/>
  <path class="fil145" d="M14130 2168l333 -227 0 22 -333 227 0 -22zm1897 -1290l305 -207 18 11 -305 207 -18 -11z"/>
  <path class="fil146" d="M14130 2154l333 -227 0 22 -333 226 0 -21zm1886 -1282l305 -207 17 10 -305 207 -17 -10z"/>
  <path class="fil147" d="M14130 2139l333 -227 0 21 -333 227 0 -21zm1875 -1274l304 -207 18 10 -305 207 -17 -10z"/>
  <path class="fil148" d="M14130 2125l333 -227 0 21 -333 227 0 -21zm1864 -1266l304 -207 17 9 -305 207 -16 -9z"/>
  <path class="fil149" d="M14130 2110l333 -227 0 22 -333 226 0 -21zm1852 -1259l304 -206 17 10 -304 207 -17 -11z"/>
  <path class="fil150" d="M14130 2095l333 -227 0 23 -333 226 0 -22zm1840 -1250l305 -207 17 10 -304 207 -18 -10z"/>
  <path class="fil151" d="M14130 2081l333 -227 0 22 -333 227 0 -22zm1829 -1243l305 -207 17 10 -305 207 -17 -10z"/>
  <path class="fil152" d="M14130 2067l333 -227 0 22 -333 226 0 -21zm1818 -1236l304 -206 18 10 -305 207 -17 -11z"/>
  <path class="fil153" d="M14130 2052l334 -227 -1 22 -333 227 0 -22zm1807 -1227l304 -207 17 10 -304 207 -17 -10z"/>
  <path class="fil154" d="M14130 2037l334 -226 0 21 -334 227 0 -22zm1795 -1219l305 -207 16 10 -304 207 -17 -10z"/>
  <path class="fil155" d="M14130 2023l334 -227 0 22 -334 227 0 -22zm1783 -1212l305 -207 17 10 -304 207 -18 -10z"/>
  <path class="fil156" d="M14130 2009l334 -227 0 22 -334 226 0 -21zm1772 -1204l305 -207 17 10 -305 207 -17 -10z"/>
  <path class="fil157" d="M14130 1994l334 -227 0 22 -334 227 0 -22zm1761 -1196l304 -207 18 10 -305 207 -17 -10z"/>
  <path class="fil158" d="M14130 1980l334 -227 0 21 -334 227 0 -21zm1749 -1189l305 -207 17 10 -304 207 -18 -10z"/>
  <path class="fil159" d="M14130 1966l334 -227 0 21 -334 226 0 -20zm1738 -1181l305 -207 16 9 -304 207 -17 -9z"/>
  <path class="fil160" d="M14130 1950l334 -227 0 23 -334 226 0 -22zm1645 -1118l386 -262 17 11 -304 207 -11 -6 -88 50z"/>
  <path class="fil161" d="M14130 1936l334 -227 0 22 -334 227 0 -22zm1513 -1028l507 -344 17 10 -319 217 -205 117z"/>
  <path class="fil162" d="M14130 1922l334 -227 0 22 -334 226 0 -21zm1376 -935l632 -430 18 11 -442 299 -208 120z"/>
  <path class="fil163" d="M14130 1907l334 -227 0 23 -334 226 0 -22zm1242 -843l755 -513 17 10 -565 384 -207 119z"/>
  <path class="fil164" d="M14130 1893l334 -227 0 21 -334 227 0 -21zm1107 -752l879 -597 17 10 -692 470 -204 117z"/>
  <path class="fil165" d="M14130 1878l334 -227 0 22 -334 227 0 -22zm967 -657l1007 -684 17 10 -820 557 -204 117z"/>
  <path class="fil166" d="M14130 1864l334 -227 0 22 -334 226 0 -21zm829 -564l1133 -770 18 10 -946 643 -205 117z"/>
  <path class="fil167" d="M14130 1849l334 -227 0 22 -334 227 0 -22zm692 -470l1259 -855 17 10 -1069 726 -207 119z"/>
  <path class="fil168" d="M14130 1834l334 -226 0 22 -334 227 0 -23zm556 -377l1384 -940 17 10 -1192 810 -209 120z"/>
  <path class="fil169" d="M14130 1820l334 -226 0 21 -334 226 0 -21zm423 -287l1505 -1023 18 11 -1322 897 -201 115z"/>
  <polygon class="fil170" points="14130,1806 16047,504 16064,513 14617,1496 14464,1584 14464,1601 14130,1827 "/>
  <polygon class="fil171" points="14130,1791 16035,497 16052,507 14480,1575 14464,1584 14464,1586 14130,1813 "/>
  <polygon class="fil172" points="14130,1776 16024,490 16041,500 14130,1798 "/>
  <polygon class="fil173" points="14130,1762 16013,483 16030,493 14130,1784 "/>
  <polygon class="fil174" points="14130,1748 16001,477 16019,487 14130,1770 "/>
  <polygon class="fil175" points="14130,1733 15990,470 16007,480 14130,1755 "/>
  <polygon class="fil176" points="14130,1719 15979,463 15995,473 14130,1740 "/>
  <polygon class="fil177" points="14130,1704 15967,456 15984,467 14130,1726 "/>
  <polygon class="fil178" points="14130,1690 15956,450 15973,460 14130,1712 "/>
  <polygon class="fil179" points="14130,1675 15944,443 15962,453 14130,1697 "/>
  <polygon class="fil180" points="14130,1661 15933,436 15950,446 14130,1682 "/>
  <polygon class="fil181" points="14130,1647 15922,430 15938,439 14130,1668 "/>
  <polygon class="fil182" points="14130,1631 15910,423 15927,433 14130,1654 "/>
  <polygon class="fil183" points="14130,1617 15899,416 15916,426 14130,1639 "/>
  <polygon class="fil184" points="14130,1603 15887,409 15905,420 14130,1625 "/>
  <polygon class="fil185" points="14130,1588 15876,403 15893,413 14130,1611 "/>
  <polygon class="fil186" points="14130,1574 15859,400 15865,396 15881,406 14130,1595 "/>
  <polygon class="fil187" points="14130,1559 15720,480 15865,396 15870,399 14130,1581 "/>
  <polygon class="fil188" points="14130,1545 15582,558 15786,442 14130,1567 "/>
  <polygon class="fil189" points="14131,1530 15445,637 15653,518 14130,1552 "/>
  <polygon class="fil190" points="14131,1516 15312,713 15518,595 14131,1538 "/>
  <polygon class="fil191" points="14131,1502 15177,791 15378,676 14131,1523 "/>
  <polygon class="fil192" points="14131,1487 15040,869 15242,754 14131,1509 "/>
  <polygon class="fil193" points="14131,1472 14901,949 15105,832 14131,1494 "/>
  <polygon class="fil194" points="14131,1458 14764,1027 14971,909 14131,1480 "/>
  <polygon class="fil195" points="14131,1443 14629,1105 14837,986 14131,1465 "/>
  <polygon class="fil196" points="14131,1429 14496,1181 14700,1064 14131,1451 "/>
  <polygon class="fil197" points="14131,1415 14359,1259 14560,1144 14131,1436 "/>
  <polygon class="fil198" points="14131,1400 14221,1338 14423,1223 14131,1421 "/>
  <polygon class="fil199" points="14288,1300 14131,1407 14131,1390 "/>
  <polygon class="fil200" points="14131,1391 14133,1389 14155,1376 14131,1393 "/>
  <path class="fil0" d="M23757 2993l-451 -761 436 -518 -384 0 -371 453 0 -453 -311 0 0 1279 311 0 0 -401 108 -124 295 525 367 0zm-1624 -868c0,67 -50,130 -136,130l-178 0 0 -258 178 0c86,0 136,62 136,128l0 0zm384 868l-278 -534c101,-50 208,-159 208,-334 0,-209 -152,-411 -436,-411l-507 0 0 1279 315 0 0 -476 106 0 227 476 365 0zm-1613 -453l-224 0 115 -341 109 341zm471 453l-466 -1279 -243 0 -466 1279 330 0 63 -191 393 0 59 191 330 0zm-1121 -998l0 -281 -944 0 0 281 315 0 0 998 315 0 0 -998 314 0zm-1075 606c0,-119 -27,-214 -95,-281 -54,-54 -137,-90 -252,-106l-154 -21c-46,-5 -72,-22 -89,-38 -20,-20 -25,-43 -25,-60 0,-55 45,-118 155,-118 55,0 161,-6 243,76l197 -199c-109,-109 -248,-152 -431,-152 -291,0 -468,171 -468,404 0,110 29,197 88,258 58,59 144,96 258,113l154 21c42,6 68,18 85,34 18,20 25,45 25,76 0,74 -60,115 -184,115 -102,0 -219,-24 -286,-90l-201 202c130,133 290,168 486,168 269,0 494,-141 494,-402l0 0z"/>
  <path class="fil201" d="M530 625c67,0 123,9 166,26 43,18 77,43 103,75 25,33 43,73 52,121 10,47 14,102 14,162 0,54 -4,105 -13,152 -9,47 -26,88 -51,123 -26,36 -61,63 -106,83 -45,20 -104,29 -176,29l-109 0 0 519 -150 0 0 -1290 270 0zm-120 636l103 0c46,0 82,-7 110,-20 27,-14 48,-32 62,-54 15,-23 24,-49 28,-78 4,-30 6,-62 6,-95 0,-35 -3,-68 -7,-99 -4,-31 -14,-58 -28,-81 -14,-23 -34,-41 -61,-54 -26,-13 -62,-19 -106,-19l-107 0 0 500z"/>
  <path id="1" class="fil201" d="M1309 1836c-25,33 -54,57 -86,70 -33,14 -69,20 -110,20 -39,0 -72,-7 -99,-23 -27,-15 -48,-36 -64,-61 -16,-25 -27,-54 -34,-85 -7,-32 -11,-64 -11,-97 0,-35 4,-70 12,-104 7,-35 21,-66 40,-95 19,-28 45,-51 78,-69 33,-18 76,-27 128,-27l148 0 0 -122c0,-36 -8,-65 -25,-86 -18,-21 -50,-31 -99,-31 -25,0 -50,7 -74,22 -24,15 -39,39 -46,72l-143 -39c14,-60 45,-108 92,-142 47,-35 107,-52 179,-52 85,0 151,19 197,56 47,38 70,104 70,198l0 674 -151 0 0 -79 -2 0zm2 -343l-110 0c-40,0 -74,11 -104,34 -30,23 -45,64 -45,123 0,44 10,77 29,99 19,23 49,35 89,35 47,0 82,-13 106,-39 23,-26 35,-62 35,-108l0 -144z"/>
  <path id="2" class="fil201" d="M2020 1443c43,13 70,40 82,79 11,38 17,82 17,130 0,52 -8,95 -24,130 -16,35 -37,62 -64,83 -26,21 -57,36 -92,46 -35,9 -71,14 -110,14 -76,0 -138,-19 -186,-56 -49,-37 -76,-97 -84,-180l147 -22c2,44 14,77 35,96 21,20 52,30 92,30 33,0 63,-10 91,-31 27,-20 41,-57 41,-112 0,-42 -8,-76 -23,-103 -15,-28 -43,-41 -82,-41l-84 0 0 -128 88 0c37,0 63,-11 78,-33 15,-22 23,-54 23,-96 0,-35 -10,-65 -30,-88 -20,-23 -51,-35 -94,-35 -79,0 -121,41 -126,124l-143 -30c7,-74 34,-131 82,-170 48,-40 111,-59 187,-59 88,0 156,20 205,61 49,40 73,103 73,189 0,21 -2,42 -5,63 -3,21 -8,40 -16,57 -8,17 -18,33 -30,47 -13,13 -29,24 -48,31l0 4z"/>
  <path id="3" class="fil201" d="M2585 987c16,0 37,2 60,6 25,5 48,15 70,30 22,15 42,38 60,68 17,29 29,69 36,120 3,37 6,76 6,117 1,41 1,79 1,115 0,66 -1,129 -5,188 -3,59 -12,110 -28,153 -16,43 -40,77 -73,103 -33,25 -79,38 -138,38 -37,0 -69,-7 -95,-20 -27,-13 -49,-32 -67,-56l-3 0 0 422 -151 0 0 -1273 151 0 0 70 3 2c21,-27 42,-48 65,-62 23,-14 59,-21 108,-21zm-51 143c-42,0 -73,13 -95,40 -22,27 -32,62 -32,104l0 363c0,44 10,78 30,104 21,26 53,39 97,39 28,0 51,-5 68,-16 17,-10 30,-28 40,-54 10,-26 16,-61 20,-103 4,-43 6,-96 6,-159 0,-57 -1,-105 -3,-145 -2,-40 -7,-73 -16,-99 -9,-26 -23,-45 -40,-57 -18,-12 -43,-17 -75,-17z"/>
  <path id="4" class="fil201" d="M3344 1836c-25,33 -54,57 -87,70 -32,14 -69,20 -109,20 -40,0 -73,-7 -99,-23 -27,-15 -48,-36 -64,-61 -16,-25 -27,-54 -34,-85 -7,-32 -11,-64 -11,-97 0,-35 4,-70 12,-104 7,-35 21,-66 40,-95 19,-28 45,-51 78,-69 33,-18 75,-27 127,-27l149 0 0 -122c0,-36 -9,-65 -26,-86 -17,-21 -50,-31 -98,-31 -25,0 -50,7 -74,22 -24,15 -40,39 -46,72l-143 -39c14,-60 45,-108 92,-142 47,-35 106,-52 179,-52 85,0 151,19 197,56 46,38 69,104 69,198l0 674 -150 0 0 -79 -2 0zm2 -343l-111 0c-39,0 -74,11 -103,34 -30,23 -45,64 -45,123 0,44 9,77 28,99 19,23 49,35 90,35 47,0 82,-13 106,-39 23,-26 35,-62 35,-108l0 -144z"/>
  <path id="5" class="fil201" d="M3954 1026c36,0 67,4 92,12 26,8 47,19 65,32 17,14 31,30 42,47 12,18 22,37 29,57 7,17 11,40 15,67 3,27 5,56 7,87 2,31 3,62 4,94 1,32 1,62 1,89 0,35 -1,65 -2,89 -1,25 -4,55 -8,91 -6,50 -19,90 -38,121 -19,30 -42,55 -69,72 -27,17 -57,29 -89,35 -32,6 -63,9 -93,9 -39,0 -73,-5 -102,-14 -29,-10 -53,-23 -73,-39 -21,-16 -37,-35 -50,-57 -13,-22 -22,-43 -29,-66 -7,-28 -12,-68 -14,-118 -2,-51 -3,-100 -3,-147l0 -183c0,-98 4,-181 13,-250 8,-68 21,-126 38,-172 18,-46 40,-84 69,-113 28,-29 63,-53 105,-73 24,-11 46,-21 66,-29 20,-8 40,-16 60,-23 20,-7 42,-16 65,-24 23,-9 49,-20 80,-34l51 104c-29,15 -54,27 -74,35 -20,9 -40,17 -59,25 -19,7 -40,16 -62,26 -22,9 -49,23 -81,40 -45,24 -76,62 -93,115 -18,53 -27,111 -27,173l4 0c25,-33 54,-54 86,-63 32,-10 57,-15 74,-15zm-28 131c-25,0 -49,7 -71,19 -22,12 -38,32 -50,61 -10,23 -15,57 -16,102 -1,45 -2,105 -3,179 0,40 1,77 2,109 1,32 5,58 11,79 9,27 25,48 45,64 22,15 49,23 82,23 27,0 51,-8 71,-24 21,-16 36,-36 46,-61 7,-13 11,-41 15,-83 3,-42 4,-89 4,-141 0,-16 0,-35 -1,-57 0,-22 -1,-44 -2,-67 0,-23 -1,-45 -3,-65 -2,-20 -5,-36 -9,-47 -18,-60 -58,-91 -121,-91z"/>
  <path id="6" class="fil201" d="M4621 987c54,0 98,7 132,20 33,14 60,33 81,57 20,24 35,52 44,85 9,33 14,68 17,107 2,35 4,74 6,114 1,41 1,78 1,110 0,70 -3,141 -11,211 -6,50 -19,90 -38,121 -19,30 -43,55 -70,72 -27,17 -57,29 -89,35 -32,6 -63,9 -93,9 -40,0 -74,-5 -103,-14 -29,-10 -53,-23 -73,-39 -21,-16 -37,-35 -50,-57 -13,-22 -22,-43 -29,-66 -4,-15 -7,-33 -9,-55 -3,-23 -4,-47 -5,-74 -1,-26 -1,-53 -2,-80 -1,-27 -1,-53 -1,-76 0,-31 1,-63 2,-96 1,-32 3,-64 6,-93 2,-30 5,-57 9,-81 4,-24 9,-43 15,-58 19,-47 48,-84 90,-111 43,-28 99,-41 170,-41zm-3 135c-25,0 -49,6 -70,17 -20,11 -36,31 -48,59 -7,17 -12,53 -15,108 -2,55 -4,119 -5,193 0,41 0,81 1,120 2,38 6,68 12,89 18,57 59,85 125,85 26,0 50,-8 70,-23 20,-16 35,-36 45,-60 2,-6 5,-18 8,-34 2,-17 4,-37 6,-59 2,-23 3,-48 4,-74 1,-25 1,-51 1,-77 0,-26 0,-52 -1,-77 -1,-25 -1,-49 -2,-73 -1,-23 -2,-44 -4,-63 -2,-18 -4,-33 -8,-44 -18,-58 -57,-87 -119,-87z"/>
  <polygon id="7" class="fil201" points="5306,1130 5306,1915 5156,1915 5156,1130 4958,1130 4958,1000 5506,1000 5506,1130 "/>
  <path id="8" class="fil201" d="M5571 1915l0 -913 151 0 0 396 64 0c17,0 34,-1 52,-3 18,-3 35,-9 50,-18 16,-9 31,-23 44,-41 14,-18 24,-42 32,-71l72 -263 145 0 -74 265c-13,44 -30,82 -51,112 -21,30 -48,50 -81,60 42,10 73,31 93,63 19,32 35,71 48,117l82 296 -149 0 -64 -252c-8,-29 -18,-54 -29,-73 -11,-19 -25,-34 -40,-43 -15,-10 -32,-17 -50,-21 -19,-4 -38,-5 -59,-5l-85 0 0 394 -151 0z"/>
  <path id="9" class="fil201" d="M6674 1836c-25,33 -54,57 -86,70 -33,14 -69,20 -110,20 -39,0 -72,-7 -99,-23 -27,-15 -48,-36 -64,-61 -16,-25 -27,-54 -34,-85 -7,-32 -11,-64 -11,-97 0,-35 4,-70 12,-104 7,-35 21,-66 40,-95 19,-28 45,-51 78,-69 33,-18 76,-27 128,-27l148 0 0 -122c0,-36 -8,-65 -26,-86 -17,-21 -49,-31 -98,-31 -25,0 -50,7 -74,22 -24,15 -39,39 -46,72l-143 -39c14,-60 45,-108 92,-142 47,-35 107,-52 179,-52 85,0 151,19 197,56 47,38 70,104 70,198l0 674 -151 0 0 -79 -2 0zm2 -343l-110 0c-40,0 -74,11 -104,34 -30,23 -45,64 -45,123 0,44 10,77 29,99 19,23 49,35 89,35 47,0 82,-13 106,-39 23,-26 35,-62 35,-108l0 -144z"/>
  <polygon id="10" class="fil201" points="7791,1915 7791,1313 7787,1313 7509,1915 7364,1915 7364,1000 7511,1000 7511,1598 7514,1598 7791,1000 7941,1000 7941,1915 "/>
  <path id="11" class="fil201" d="M488 3794c-39,0 -73,-5 -102,-15 -28,-10 -53,-23 -73,-39 -20,-16 -37,-35 -49,-57 -12,-21 -21,-43 -27,-65 -4,-15 -7,-34 -10,-56 -2,-22 -4,-47 -5,-73 0,-27 -1,-54 -1,-81 -1,-27 -1,-52 -1,-76 0,-31 0,-62 1,-95 2,-33 3,-64 5,-94 2,-29 5,-56 9,-80 4,-25 9,-44 15,-59 18,-47 47,-84 88,-111 40,-27 96,-41 167,-41 94,0 161,25 201,74 40,50 60,116 60,199l-156 20c0,-56 -10,-96 -29,-120 -20,-25 -46,-37 -80,-37 -26,0 -47,5 -66,16 -18,11 -33,31 -44,59 -8,18 -13,55 -15,109 -3,54 -5,118 -6,191 0,41 1,81 2,119 1,39 5,69 11,90 9,27 23,48 41,63 18,16 44,23 77,23 39,0 67,-13 84,-40 17,-28 25,-65 25,-112l154 26c-2,84 -25,149 -69,194 -44,45 -113,68 -207,68z"/>
  <path id="12" class="fil201" d="M1150 2852c54,0 97,7 131,21 34,13 61,32 81,56 21,24 36,53 44,85 9,33 15,69 18,107 2,36 4,74 5,115 2,41 2,77 2,109 0,71 -4,141 -11,212 -7,49 -19,89 -38,120 -20,31 -43,55 -70,72 -27,18 -57,29 -89,35 -32,7 -63,10 -94,10 -39,0 -73,-5 -102,-15 -29,-10 -53,-23 -74,-39 -20,-16 -36,-35 -49,-57 -13,-21 -23,-43 -29,-65 -4,-15 -7,-34 -10,-56 -2,-22 -4,-47 -4,-73 -1,-27 -2,-54 -2,-81 -1,-27 -1,-52 -1,-76 0,-31 0,-62 2,-95 1,-33 3,-64 5,-94 3,-29 6,-56 10,-80 4,-25 9,-44 15,-59 18,-47 48,-84 90,-111 42,-27 99,-41 170,-41zm-4 136c-25,0 -48,5 -69,16 -20,11 -37,31 -48,59 -7,17 -12,54 -15,108 -3,55 -4,120 -6,194 0,40 1,80 2,119 1,39 5,68 12,89 17,57 59,85 124,85 27,0 50,-7 70,-23 21,-15 36,-35 46,-60 2,-6 5,-17 7,-34 3,-17 5,-36 7,-59 2,-23 3,-47 4,-73 0,-26 1,-52 1,-78 0,-26 -1,-51 -1,-76 -1,-26 -1,-50 -2,-73 -1,-24 -2,-45 -4,-63 -2,-19 -5,-34 -8,-45 -18,-57 -58,-86 -120,-86z"/>
  <polygon id="13" class="fil201" points="1982,3781 1982,2995 1727,2995 1727,3781 1576,3781 1576,2865 2132,2865 2132,3781 "/>
  <path id="14" class="fil201" d="M2612 2852c16,0 36,2 60,7 24,4 47,14 69,29 23,16 43,38 60,68 18,30 30,70 36,120 4,38 6,76 7,117 1,41 1,79 1,115 0,67 -2,130 -5,188 -3,59 -13,110 -28,153 -16,43 -40,78 -73,103 -33,25 -79,38 -139,38 -36,0 -68,-6 -95,-19 -26,-13 -48,-32 -66,-57l-4 0 0 423 -150 0 0 -1274 150 0 0 71 4 2c20,-28 42,-48 65,-62 22,-15 58,-22 108,-22zm-51 143c-42,0 -74,14 -95,41 -22,27 -33,61 -33,103l0 364c0,43 11,78 31,104 20,25 53,38 97,38 28,0 51,-5 68,-15 17,-11 30,-29 40,-55 9,-26 16,-60 20,-103 3,-42 5,-95 5,-158 0,-57 -1,-106 -2,-146 -2,-40 -8,-73 -17,-99 -9,-26 -22,-45 -40,-56 -17,-12 -42,-18 -74,-18z"/>
  <path id="15" class="fil201" d="M3271 2852c53,0 97,7 131,21 34,13 60,32 81,56 20,24 35,53 44,85 9,33 15,69 17,107 3,36 5,74 6,115 1,41 2,77 2,109 0,71 -4,141 -12,212 -6,49 -19,89 -38,120 -19,31 -42,55 -70,72 -27,18 -57,29 -89,35 -31,7 -63,10 -93,10 -40,0 -74,-5 -103,-15 -28,-10 -53,-23 -73,-39 -20,-16 -37,-35 -50,-57 -13,-21 -22,-43 -29,-65 -3,-15 -7,-34 -9,-56 -3,-22 -4,-47 -5,-73 -1,-27 -1,-54 -2,-81 0,-27 -1,-52 -1,-76 0,-31 1,-62 2,-95 1,-33 3,-64 6,-94 2,-29 6,-56 9,-80 4,-25 9,-44 16,-59 18,-47 48,-84 90,-111 42,-27 98,-41 170,-41zm-4 136c-25,0 -48,5 -69,16 -21,11 -37,31 -48,59 -8,17 -13,54 -16,108 -2,55 -4,120 -5,194 0,40 0,80 2,119 1,39 5,68 11,89 18,57 59,85 125,85 26,0 50,-7 70,-23 20,-15 35,-35 45,-60 3,-6 5,-17 8,-34 2,-17 5,-36 6,-59 2,-23 4,-47 4,-73 1,-26 1,-52 1,-78 0,-26 0,-51 -1,-76 0,-26 -1,-50 -2,-73 0,-24 -2,-45 -3,-63 -2,-19 -5,-34 -9,-45 -17,-57 -57,-86 -119,-86z"/>
  <path id="16" class="fil201" d="M3693 3781l0 -916 251 0c103,0 179,22 227,66 48,44 72,105 72,184 0,44 -7,79 -22,107 -14,28 -37,52 -69,73l2 0c38,17 64,44 79,81 14,36 22,79 22,127 0,96 -26,167 -78,211 -52,45 -132,67 -240,67l-244 0zm417 -289c0,-42 -11,-75 -32,-98 -22,-23 -65,-34 -128,-34l-103 0 0 282 107 0c34,0 61,-4 82,-11 20,-8 36,-18 47,-31 12,-13 19,-29 22,-47 3,-19 5,-39 5,-61zm-17 -378c0,-40 -12,-70 -35,-89 -24,-20 -64,-30 -121,-30l-90 0 0 243 88 0c57,0 97,-11 122,-32 24,-21 36,-52 36,-92z"/>
  <path id="17" class="fil201" d="M4682 2852c54,0 98,7 132,21 33,13 60,32 81,56 20,24 35,53 44,85 9,33 14,69 17,107 2,36 4,74 6,115 1,41 1,77 1,109 0,71 -3,141 -11,212 -6,49 -19,89 -38,120 -19,31 -43,55 -70,72 -27,18 -57,29 -89,35 -32,7 -63,10 -94,10 -39,0 -73,-5 -102,-15 -29,-10 -53,-23 -73,-39 -21,-16 -37,-35 -50,-57 -13,-21 -23,-43 -29,-65 -4,-15 -7,-34 -9,-56 -3,-22 -5,-47 -5,-73 -1,-27 -1,-54 -2,-81 -1,-27 -1,-52 -1,-76 0,-31 1,-62 2,-95 1,-33 3,-64 6,-94 2,-29 5,-56 9,-80 4,-25 9,-44 15,-59 18,-47 48,-84 90,-111 42,-27 99,-41 170,-41zm-3 136c-25,0 -49,5 -70,16 -20,11 -36,31 -48,59 -7,17 -12,54 -15,108 -2,55 -4,120 -6,194 0,40 1,80 2,119 2,39 5,68 12,89 18,57 59,85 125,85 26,0 49,-7 69,-23 21,-15 36,-35 46,-60 2,-6 5,-17 8,-34 2,-17 4,-36 6,-59 2,-23 3,-47 4,-73 1,-26 1,-52 1,-78 0,-26 0,-51 -1,-76 -1,-26 -1,-50 -2,-73 -1,-24 -2,-45 -4,-63 -2,-19 -4,-34 -8,-45 -18,-57 -57,-86 -119,-86z"/>
  <path id="18" class="fil201" d="M5493 3781l0 -395 -57 0c-20,0 -40,2 -58,6 -19,3 -35,10 -51,20 -15,10 -28,24 -40,43 -11,20 -21,44 -28,74l-65 252 -149 0 82 -297c13,-45 29,-84 49,-117 20,-32 50,-53 92,-63 -33,-9 -60,-30 -81,-60 -21,-30 -37,-67 -50,-112l-74 -265 144 0 73 263c7,30 18,54 31,72 13,17 28,31 44,40 16,10 32,15 49,18 18,2 35,4 53,4l36 0 0 -397 151 0 0 397 36 0c16,0 33,-2 51,-4 18,-3 35,-8 51,-18 16,-9 30,-23 44,-40 13,-18 23,-42 31,-72l72 -263 145 0 -74 265c-13,45 -30,82 -51,112 -21,30 -48,51 -81,60 42,10 73,31 93,63 20,33 36,72 48,117l82 297 -148 0 -65 -252c-8,-30 -17,-54 -29,-74 -11,-19 -24,-33 -40,-43 -15,-10 -32,-17 -50,-20 -19,-4 -38,-6 -58,-6l-57 0 0 395 -151 0z"/>
  <path id="19" class="fil201" d="M6297 4011l-139 0 0 -340 51 -16c13,-11 24,-24 34,-38 9,-14 18,-33 25,-55 8,-22 14,-50 19,-82 4,-33 8,-74 10,-124l19 -491 507 0 0 786 68 0 0 360 -137 0 0 -230 -457 0 0 230zm375 -1016l-211 0 -19 367c-4,67 -10,124 -17,171 -8,48 -21,87 -38,118l285 0 0 -656z"/>
  <path id="20" class="fil201" d="M7272 3658c37,0 65,-12 83,-36 19,-24 29,-57 32,-101l152 28c-5,79 -30,140 -75,182 -45,42 -113,63 -204,63 -40,0 -75,-6 -104,-16 -29,-11 -54,-24 -74,-41 -21,-16 -37,-35 -49,-56 -12,-21 -20,-42 -25,-63 -4,-15 -7,-34 -10,-56 -2,-22 -4,-47 -6,-73 -1,-27 -2,-54 -2,-81 -1,-27 -1,-52 -1,-76 0,-31 0,-62 1,-93 0,-32 2,-62 4,-90 3,-29 6,-55 10,-79 4,-24 9,-44 15,-60 18,-48 47,-87 88,-115 41,-29 98,-43 168,-43 94,0 162,26 204,76 41,51 62,121 62,210l0 226 -404 0c0,41 1,81 3,120 2,40 6,70 13,91 17,56 57,83 119,83zm119 -413l0 -78c0,-23 -2,-46 -5,-67 -3,-22 -9,-41 -19,-57 -8,-16 -21,-29 -37,-38 -16,-9 -37,-14 -62,-14 -23,0 -44,5 -63,16 -20,10 -35,30 -47,58 -6,18 -11,41 -13,71 -3,29 -5,66 -6,109l252 0z"/>
  <polygon id="21" class="fil201" points="8099,3781 8099,3375 7852,3375 7852,3781 7697,3781 7697,2865 7852,2865 7852,3251 8099,3251 8099,2865 8254,2865 8254,3781 "/>
  <polygon id="22" class="fil201" points="8854,3781 8854,3178 8850,3178 8572,3781 8427,3781 8427,2865 8574,2865 8574,3464 8578,3464 8854,2865 9004,2865 9004,3781 "/>
  <path id="23" class="fil201" d="M9434 3658c37,0 65,-12 83,-36 19,-24 30,-57 32,-101l153 28c-5,79 -31,140 -75,182 -45,42 -113,63 -204,63 -41,0 -76,-6 -105,-16 -29,-11 -54,-24 -74,-41 -20,-16 -36,-35 -48,-56 -12,-21 -21,-42 -26,-63 -4,-15 -7,-34 -9,-56 -3,-22 -5,-47 -6,-73 -1,-27 -2,-54 -3,-81 -1,-27 -1,-52 -1,-76 0,-31 0,-62 1,-93 1,-32 2,-62 5,-90 2,-29 5,-55 9,-79 4,-24 9,-44 16,-60 17,-48 47,-87 88,-115 41,-29 97,-43 168,-43 93,0 161,26 203,76 42,51 63,121 63,210l0 226 -404 0c0,41 1,81 2,120 2,40 7,70 13,91 18,56 57,83 119,83zm119 -413l0 -78c0,-23 -2,-46 -5,-67 -3,-22 -9,-41 -18,-57 -9,-16 -21,-29 -37,-38 -16,-9 -37,-14 -63,-14 -23,0 -44,5 -63,16 -19,10 -35,30 -46,58 -7,18 -11,41 -14,71 -2,29 -4,66 -5,109l251 0z"/>
  <path id="24" class="fil201" d="M10473 3794c-39,0 -73,-5 -102,-15 -28,-10 -53,-23 -73,-39 -20,-16 -37,-35 -49,-57 -12,-21 -21,-43 -27,-65 -4,-15 -7,-34 -10,-56 -2,-22 -4,-47 -5,-73 0,-27 -1,-54 -1,-81 -1,-27 -1,-52 -1,-76 0,-31 0,-62 1,-95 2,-33 3,-64 5,-94 2,-29 5,-56 9,-80 4,-25 9,-44 15,-59 18,-47 47,-84 88,-111 40,-27 96,-41 167,-41 94,0 161,25 201,74 40,50 60,116 60,199l-156 20c0,-56 -10,-96 -29,-120 -20,-25 -46,-37 -80,-37 -26,0 -47,5 -66,16 -18,11 -33,31 -44,59 -8,18 -13,55 -15,109 -3,54 -5,118 -6,191 0,41 1,81 2,119 1,39 5,69 11,90 9,27 23,48 41,63 18,16 44,23 77,23 39,0 67,-13 84,-40 17,-28 25,-65 25,-112l154 26c-2,84 -25,149 -69,194 -44,45 -113,68 -207,68z"/>
  <path id="25" class="fil201" d="M11235 3701c-25,33 -54,57 -86,70 -33,14 -69,21 -110,21 -39,0 -72,-8 -99,-23 -27,-16 -48,-36 -64,-61 -16,-26 -27,-54 -34,-86 -7,-31 -11,-64 -11,-97 0,-35 4,-69 12,-104 7,-34 21,-66 40,-94 19,-29 45,-52 78,-70 33,-18 76,-27 128,-27l148 0 0 -122c0,-36 -8,-64 -26,-85 -17,-21 -49,-32 -98,-32 -25,0 -50,8 -74,22 -24,15 -39,39 -46,73l-143 -39c14,-61 45,-108 92,-143 47,-34 107,-52 179,-52 85,0 151,19 197,57 47,37 70,103 70,197l0 675 -151 0 0 -80 -2 0zm2 -343l-110 0c-40,0 -74,12 -104,34 -30,23 -45,64 -45,124 0,43 10,76 29,99 19,23 49,34 89,34 47,0 82,-13 106,-39 23,-26 35,-62 35,-107l0 -145z"/>
  <path id="26" class="fil201" d="M11706 2502c1,12 5,25 11,39 7,13 15,26 26,38 11,12 24,21 39,29 15,7 32,11 52,11 20,0 38,-4 54,-11 16,-8 29,-17 41,-29 11,-12 20,-25 25,-38 6,-14 9,-27 9,-39l120 0c-2,23 -9,48 -19,75 -10,27 -25,51 -46,73 -20,22 -45,41 -76,56 -30,15 -67,22 -108,22 -47,0 -87,-7 -119,-22 -31,-15 -57,-34 -77,-56 -19,-22 -34,-46 -43,-73 -9,-27 -13,-52 -13,-75l124 0zm274 1279l0 -603 -5 0 -277 603 -145 0 0 -916 147 0 0 599 4 0 276 -599 151 0 0 916 -151 0z"/>
  <polygon id="27" class="fil201" points="12569,2995 12569,3781 12418,3781 12418,2995 12220,2995 12220,2865 12769,2865 12769,2995 "/>
  <path id="28" class="fil201" d="M13146 3701c-25,33 -54,57 -87,70 -32,14 -68,21 -109,21 -39,0 -72,-8 -99,-23 -27,-16 -48,-36 -64,-61 -16,-26 -27,-54 -34,-86 -7,-31 -11,-64 -11,-97 0,-35 4,-69 12,-104 7,-34 21,-66 40,-94 19,-29 45,-52 78,-70 33,-18 75,-27 127,-27l149 0 0 -122c0,-36 -8,-64 -26,-85 -17,-21 -49,-32 -98,-32 -25,0 -50,8 -74,22 -24,15 -39,39 -46,73l-143 -39c14,-61 45,-108 92,-143 47,-34 106,-52 179,-52 85,0 151,19 197,57 46,37 70,103 70,197l0 675 -151 0 0 -80 -2 0zm2 -343l-110 0c-40,0 -74,12 -104,34 -30,23 -45,64 -45,124 0,43 10,76 29,99 19,23 48,34 89,34 47,0 82,-13 106,-39 23,-26 35,-62 35,-107l0 -145z"/>
  <path id="29" class="fil201" d="M13478 3225l0 -169 165 0 0 169 -165 0zm0 556l0 -169 165 0 0 169 -165 0z"/>
 </g>
</svg>
