<?xml version="1.0" encoding="UTF-8"?>
<!DOCTYPE svg PUBLIC "-//W3C//DTD SVG 1.1//EN" "http://www.w3.org/Graphics/SVG/1.1/DTD/svg11.dtd">
<!-- Creator: CorelDRAW X7 -->
<svg xmlns="http://www.w3.org/2000/svg" xml:space="preserve" width="250px" height="69px" version="1.1" style="shape-rendering:geometricPrecision; text-rendering:geometricPrecision; image-rendering:optimizeQuality; fill-rule:evenodd; clip-rule:evenodd"
viewBox="0 0 252 70"
 xmlns:xlink="http://www.w3.org/1999/xlink">
 <defs>
  <style type="text/css">
   <![CDATA[
    .fil0 {fill:black}
    .fil1 {fill:black;fill-rule:nonzero}
   ]]>
  </style>
 </defs>
 <g id="Слой_x0020_1">
  <metadata id="CorelCorpID_0Corel-Layer"/>
  <path class="fil0" d="M7 69l0 -2 0 -60 13 -7 23 13 21 -6 9 10 0 21 -35 8 0 21 13 0 0 -8 8 0 0 8 19 0 0 -30 17 9 0 23 -88 0zm36 -26l1 -29 19 -5 0 29 -20 5zm-23 24l-11 0 0 -59 11 -5 0 64z"/>
  <path class="fil1" d="M7 68l0 -1 0 -60c4,-3 9,-5 13,-7l23 13 21 -6 9 10c0,7 0,14 0,21l-35 8 0 20 13 0 0 -7 8 0 0 8 19 0 0 -30c6,3 12,6 17,9l0 22 7 0 0 2 -102 0 0 -2 7 0zm64 -4l0 -8 3 0 0 8 -3 0zm-7 0l0 -8 3 0 0 8 -3 0zm-19 1l0 -7 3 0 0 7 -3 0zm-4 0l0 -7 2 0 0 7 -2 0zm0 -9l33 -7 1 2 -34 6 0 -1zm0 -4l33 -7 1 2 -34 7 0 -2zm0 -4l33 -6 1 1 -34 7 0 -2zm19 -33l0 24 3 -1 0 -29 -19 6 -1 28 3 -1 0 0 0 -24 2 0 0 24 4 -1 0 -25 2 0 0 24 5 -1 0 -24 1 0zm0 24l0 1 -1 0 0 -1c-2,1 -3,1 -5,1l0 1 -2 0 0 0 -4 1 0 0 -2 0 -3 1 0 0 0 -29c7,-1 13,-3 20,-5l0 29 -3 1zm-42 -30l0 58 2 0 0 -64 -10 5 0 59 2 0 0 -55 2 0 0 55 2 0 0 -58 2 0zm0 58l0 1 77 0 0 -22 -17 -9 0 30 -19 0 0 -8 -8 0 0 8 -13 0 0 -21 35 -8 0 -21 -9 -10 -21 6 -23 -13 -13 7 0 60 0 1 5 0 0 -1 -3 0c0,-20 0,-40 0,-59 4,-2 8,-4 11,-5 0,21 0,42 0,64l0 0 -2 0zm-2 1l0 -1 -2 0 0 1 2 0z"/>
  <g id="_767977920">
   <path class="fil1" d="M104 20l0 -15 3 0 0 6 6 0 0 -6 3 0 0 15 -3 0 0 -6 -6 0 0 6 -3 0zm14 -5c0,-2 1,-4 2,-5 1,-1 2,-1 3,-1 2,0 3,1 4,2 1,1 1,2 1,4 0,1 0,2 0,3 -1,1 -1,1 -2,2 -1,0 -2,1 -3,1 -1,0 -3,-1 -4,-2 -1,-1 -1,-2 -1,-4zm2 0c0,1 0,2 1,3 0,1 1,1 2,1 1,0 2,0 2,-1 1,-1 1,-2 1,-3 0,-2 0,-3 -1,-3 0,-1 -1,-1 -2,-1 -1,0 -2,0 -2,1 -1,0 -1,1 -1,3zm10 -6l5 0c1,0 2,0 2,1 1,0 1,0 1,1 1,0 1,1 1,1 0,1 0,1 0,2 -1,0 -1,0 -1,1 0,0 1,0 1,1 0,0 0,1 0,1 0,1 0,2 -1,3 0,0 -1,0 -3,0l-5 0 0 -11zm2 5l2 0c1,0 2,0 2,0 0,0 0,0 1,-1 0,0 0,0 0,-1 0,0 0,-1 -1,-1 0,0 -1,0 -2,0l-2 0 0 3zm0 5l3 0c1,0 1,0 2,-1 0,0 0,0 0,-1 0,0 0,-1 0,-1 0,0 0,0 -1,0 0,0 -1,-1 -2,-1l-2 0 0 4zm9 -4c0,-2 0,-4 1,-5 1,-1 2,-1 4,-1 1,0 3,1 4,2 0,1 1,2 1,4 0,1 0,2 -1,3 0,1 -1,1 -2,2 0,0 -1,1 -2,1 -2,0 -3,-1 -4,-2 -1,-1 -1,-2 -1,-4zm2 0c0,1 0,2 1,3 0,1 1,1 2,1 1,0 2,0 2,-1 1,-1 1,-2 1,-3 0,-2 0,-3 -1,-3 0,-1 -1,-1 -2,-1 -1,0 -2,0 -2,1 -1,0 -1,1 -1,3zm17 1l2 1c0,1 -1,2 -1,2 -1,1 -2,2 -3,2 -2,0 -3,-1 -4,-2 -1,-1 -1,-2 -1,-4 0,-1 0,-2 0,-3 1,-1 1,-2 2,-2 1,-1 2,-1 3,-1 1,0 2,0 2,1 1,1 2,1 2,3l-2 0c0,-1 0,-1 -1,-2 0,0 -1,0 -1,0 -1,0 -2,0 -3,1 0,0 -1,1 -1,3 0,1 1,2 1,3 1,1 2,1 3,1 0,0 1,0 1,-1 1,0 1,-1 1,-2zm4 -7l2 0 0 9 5 -9 2 0 0 11 -2 0 0 -8 -5 8 -2 0 0 -11zm19 -4l2 0c0,1 0,1 0,1 -1,1 -1,1 -1,1 -1,0 -1,0 -3,0 -1,0 -2,0 -3,0 0,1 -1,1 -1,2 0,1 0,1 0,2 0,0 1,-1 1,-1 1,-1 2,-1 2,-1 2,0 3,1 4,2 1,1 1,2 1,4 0,1 0,2 0,3 -1,1 -1,1 -2,2 -1,0 -2,1 -3,1 -1,0 -2,-1 -3,-1 0,-1 -1,-2 -1,-3 -1,-1 -1,-2 -1,-5 0,-2 1,-4 1,-5 1,-1 3,-2 5,-2 1,0 2,0 2,0 0,0 0,0 0,0zm0 10c0,-1 0,-2 0,-3 -1,-1 -2,-1 -3,-1 -1,0 -1,0 -2,1 -1,1 -1,2 -1,3 0,1 0,2 1,3 1,1 1,1 2,1 1,0 2,0 3,-1 0,-1 0,-2 0,-3zm5 -6l1 0 0 9 6 -9 2 0 0 11 -2 0 0 -8 -5 8 -2 0 0 -11zm11 15l0 -15 2 0 0 2c0,-1 1,-1 1,-1 1,-1 2,-1 2,-1 1,0 2,0 3,1 0,0 1,1 1,2 1,1 1,2 1,3 0,1 0,2 -1,3 0,1 -1,1 -1,2 -1,0 -2,1 -3,1 0,0 -1,-1 -2,-1 0,0 0,0 -1,-1l0 5 -2 0zm2 -9c0,1 0,2 1,3 1,1 1,1 2,1 1,0 2,0 2,-1 1,-1 1,-2 1,-3 0,-2 0,-3 -1,-3 0,-1 -1,-1 -2,-1 -1,0 -1,0 -2,1 -1,0 -1,1 -1,3zm17 1l2 1c0,1 -1,2 -1,2 -1,1 -2,2 -3,2 -2,0 -3,-1 -4,-2 -1,-1 -1,-2 -1,-4 0,-1 0,-2 0,-3 1,-1 1,-2 2,-2 1,-1 2,-1 3,-1 1,0 2,0 2,1 1,1 2,1 2,3l-2 0c0,-1 0,-1 -1,-2 0,0 -1,0 -1,0 -1,0 -2,0 -3,1 0,0 -1,1 -1,3 0,1 1,2 1,3 1,1 2,1 3,1 0,0 1,0 1,-1 1,0 1,-1 1,-2zm4 -7l2 0 0 5c0,0 1,0 1,0 0,-1 0,-1 1,-2 0,-1 0,-2 1,-2 0,0 0,0 1,-1 0,0 0,0 1,0l0 0 0 2 0 0c-1,0 -1,0 -1,0 0,0 -1,1 -1,1 0,1 0,2 -1,2 0,0 0,0 -1,1 1,0 2,1 3,2l2 3 -2 0 -2 -3c-1,-1 -1,-1 -1,-1 -1,-1 -1,-1 -1,-1l0 5 -2 0 0 -11zm17 10c-1,0 -2,1 -2,1 -1,0 -2,1 -2,1 -2,0 -3,-1 -3,-1 -1,-1 -1,-2 -1,-3 0,0 0,-1 0,-1 0,-1 1,-1 1,-1 1,0 1,-1 1,-1 1,0 1,0 2,0 2,0 3,0 3,-1 0,0 0,0 0,0 0,-1 0,-1 0,-2 -1,0 -1,0 -2,0 -1,0 -2,0 -2,0 -1,0 -1,1 -1,2l-2 -1c0,0 1,-1 1,-1 0,-1 1,-1 2,-2 0,0 1,0 2,0 1,0 2,0 2,0 1,1 1,1 2,1 0,1 0,1 0,2 0,0 0,0 0,1l0 3c0,1 0,2 0,3 0,0 1,1 1,1l-2 0c0,0 0,-1 0,-1zm-1 -4c0,0 -1,0 -3,0 0,1 -1,1 -1,1 -1,0 -1,0 -1,0 0,1 0,1 0,1 0,1 0,1 0,2 1,0 1,0 2,0 1,0 1,0 2,0 0,-1 1,-1 1,-2 0,0 0,-1 0,-2l0 0zm14 -6l0 11 -2 0 0 -4 -1 0c-1,0 -1,0 -2,0 0,0 0,1 -1,2l-2 2 -2 0 2 -3c1,-1 1,-1 2,-1 -1,0 -2,-1 -2,-1 -1,-1 -1,-2 -1,-2 0,-1 0,-2 1,-3 0,0 1,-1 3,-1l5 0zm-2 2l-3 0c-1,0 -2,0 -2,0 0,1 0,1 0,2 0,0 0,1 0,1 1,0 2,0 3,0l2 0 0 -3z"/>
   <path class="fil1" d="M124 39l3 1c0,2 -1,3 -2,4 -1,1 -3,1 -4,1 -2,0 -4,-1 -5,-2 -1,-1 -2,-3 -2,-6 0,-2 1,-4 2,-5 1,-2 3,-3 5,-3 2,0 3,1 5,2 0,1 1,2 1,3l-3 1c0,-1 -1,-2 -1,-2 -1,-1 -1,-1 -2,-1 -1,0 -2,1 -3,1 -1,1 -1,2 -1,4 0,2 0,4 1,4 1,1 2,2 3,2 1,0 1,-1 2,-1 0,-1 1,-2 1,-3zm5 -5l8 0 0 1 -3 0 0 10 -2 0 0 -10 -3 0 0 -1zm10 15l0 -15 2 0 0 1c0,0 1,-1 1,-1 1,0 1,0 2,0 1,0 2,0 3,0 0,1 1,2 1,2 1,1 1,2 1,3 0,1 0,2 -1,3 0,1 -1,2 -2,2 0,1 -1,1 -2,1 -1,0 -1,0 -2,0 0,-1 -1,-1 -1,-1l0 5 -2 0zm2 -10c0,2 0,3 1,4 0,0 1,1 2,1 1,0 1,-1 2,-1 1,-1 1,-2 1,-4 0,-1 0,-2 -1,-3 -1,0 -1,-1 -2,-1 -1,0 -2,1 -2,1 -1,1 -1,2 -1,3zm9 0c0,-2 1,-3 2,-4 1,-1 2,-1 3,-1 2,0 3,0 4,1 1,1 2,3 2,4 0,2 -1,3 -1,4 0,0 -1,1 -2,1 -1,1 -2,1 -3,1 -1,0 -2,0 -3,-1 -1,-1 -2,-3 -2,-5zm2 0c0,2 1,3 1,4 1,0 2,1 2,1 1,0 2,-1 3,-1 0,-1 1,-2 1,-4 0,-1 -1,-2 -1,-3 -1,0 -2,-1 -3,-1 0,0 -1,1 -2,1 0,1 -1,2 -1,3zm11 -5l2 0 0 8 5 -8 2 0 0 11 -2 0 0 -8 -5 8 -2 0 0 -11zm11 0l8 0 0 1 -3 0 0 10 -2 0 0 -10 -3 0 0 -1zm17 7l2 1c0,1 0,2 -1,2 -1,1 -2,1 -3,1 -2,0 -3,0 -4,-1 -1,-1 -2,-3 -2,-4 0,-2 1,-4 2,-5 1,-1 2,-1 3,-1 2,0 3,0 4,1 1,1 1,3 1,4 0,1 0,1 0,1l-8 0c0,1 1,2 1,3 1,0 2,1 3,1 0,0 1,-1 1,-1 1,0 1,-1 1,-2zm-6 -3l6 0c0,-1 0,-1 0,-2 -1,0 -2,-1 -3,-1 0,0 -1,1 -2,1 0,1 -1,1 -1,2zm11 -4l9 0 0 11 -2 0 0 -10 -5 0 0 6c0,1 0,2 0,2 0,1 -1,1 -1,2 0,0 -1,0 -2,0 0,0 -1,0 -1,0l0 -2 1 0c0,0 0,0 1,0 0,0 0,0 0,0 0,0 0,-1 0,-2l0 -7zm11 0l2 0 0 4 3 0c1,0 2,1 3,1 1,1 1,2 1,3 0,0 0,1 -1,2 0,1 -2,1 -3,1l-5 0 0 -11zm2 9l2 0c1,0 2,0 3,0 0,0 0,-1 0,-1 0,-1 0,-1 0,-2 -1,0 -1,0 -3,0l-2 0 0 3zm9 -9l2 0 0 4 5 0 0 -4 2 0 0 11 -2 0 0 -5 -5 0 0 5 -2 0 0 -11zm19 10c-1,0 -1,1 -2,1 0,0 -1,0 -2,0 -1,0 -2,0 -3,-1 0,0 -1,-1 -1,-2 0,-1 1,-1 1,-1 0,-1 0,-1 1,-2 0,0 1,0 1,0 0,0 1,0 2,0 1,-1 2,-1 3,-1 0,0 0,0 0,-1 0,0 0,-1 0,-1 -1,-1 -2,-1 -3,-1 0,0 -1,0 -2,1 0,0 0,1 0,1l-2 0c0,-1 0,-1 1,-2 0,0 0,-1 1,-1 1,0 2,0 3,0 1,0 1,0 2,0 1,0 1,1 1,1 1,0 1,1 1,1 0,0 0,1 0,2l0 2c0,2 0,3 0,4 0,0 0,0 0,1l-1 0c-1,0 -1,-1 -1,-1zm0 -5c-1,1 -2,1 -3,1 -1,0 -1,0 -2,0 0,1 0,1 0,1 -1,0 -1,1 -1,1 0,0 1,1 1,1 0,1 1,1 2,1 0,0 1,0 2,-1 0,0 0,-1 1,-1 0,0 0,-1 0,-2l0 -1zm13 -5l0 11 -1 0 0 -4 -2 0c0,0 -1,0 -1,0 0,0 -1,1 -1,2l-2 2 -2 0 2 -3c0,-1 1,-1 2,-2 -2,0 -2,0 -3,-1 0,0 -1,-1 -1,-2 0,-1 1,-2 1,-2 1,-1 2,-1 3,-1l5 0zm-1 1l-3 0c-1,0 -2,1 -2,1 -1,0 -1,1 -1,1 0,1 1,1 1,2 0,0 1,0 3,0l2 0 0 -4z"/>
   <path class="fil1" d="M131 54l3 0 0 7c1,0 1,-1 2,-1 0,0 0,-1 1,-2 0,-2 1,-3 2,-3 0,-1 1,-1 3,-1 0,0 0,0 0,0l0 2 0 0c-1,0 -1,0 -2,1 0,0 0,0 0,0 -1,1 -1,1 -1,2 0,1 -1,1 -1,2 0,0 0,0 -1,1 1,0 1,0 2,1 0,0 1,1 1,2l2 4 -3 0 -2 -4c0,0 0,0 0,0 0,0 0,0 -1,-1 0,0 0,-1 -1,-1 0,0 0,0 -1,0l0 6 -3 0 0 -15zm12 10c0,-2 1,-4 2,-5 1,0 2,-1 3,-1 2,0 3,1 4,2 1,1 1,2 1,4 0,1 0,2 0,3 -1,1 -1,1 -2,2 -1,0 -2,1 -3,1 -1,0 -2,-1 -3,-2 -1,-1 -2,-2 -2,-4zm2 0c0,1 0,2 1,3 1,1 1,1 2,1 1,0 2,0 3,-1 0,-1 1,-2 1,-3 0,-2 -1,-3 -1,-3 -1,-1 -2,-1 -3,-1 -1,0 -1,0 -2,1 -1,0 -1,1 -1,3zm11 -6l3 0 2 9 4 -9 2 0 0 11 -2 0 0 -8 -3 8 -1 0 -3 -9 0 9 -2 0 0 -11zm14 0l9 0 0 11 -2 0 0 -9 -5 0 0 9 -2 0 0 -11zm19 10c-1,1 -2,1 -2,1 -1,0 -2,1 -2,1 -1,0 -2,-1 -3,-1 -1,-1 -1,-2 -1,-3 0,0 0,-1 0,-1 1,0 1,-1 1,-1 1,0 1,-1 2,-1 0,0 1,0 1,0 2,0 3,0 4,-1 0,0 0,0 0,0 0,-1 -1,-1 -1,-2 0,0 -1,0 -2,0 -1,0 -2,0 -2,0 0,0 -1,1 -1,2l-2 0c0,-1 1,-2 1,-2 1,-1 1,-1 2,-1 0,-1 1,-1 2,-1 1,0 2,0 3,0 0,1 1,1 1,1 0,1 0,1 0,2 0,0 1,0 1,1l0 3c0,1 0,3 0,3 0,0 0,1 0,1l-2 0c0,0 0,-1 0,-1zm0 -4c-1,0 -2,0 -3,1 -1,0 -2,0 -2,0 0,0 -1,0 -1,1 0,0 0,0 0,0 0,1 0,1 1,2 0,0 0,0 1,0 1,0 2,0 2,0 1,-1 1,-1 1,-2 1,0 1,-1 1,-1l0 -1zm4 -6l2 0 0 5 5 0 0 -5 2 0 0 11 -2 0 0 -5 -5 0 0 5 -2 0 0 -11zm12 0l2 0 0 9 5 -9 2 0 0 11 -2 0 0 -8 -5 8 -2 0 0 -11zm20 0l0 11 -1 0 0 -4 -1 0c-1,0 -2,0 -2,0 0,1 -1,1 -1,2l-2 2 -2 0 2 -3c0,-1 1,-1 2,-1 -1,0 -2,-1 -3,-1 0,-1 -1,-2 -1,-2 0,-1 1,-2 1,-3 1,0 2,-1 3,-1l5 0zm-1 2l-3 0c-1,0 -2,0 -2,0 0,1 -1,1 -1,2 0,0 1,1 1,1 1,0 1,1 3,1l2 0 0 -4z"/>
   <path class="fil0" d="M120 61l1 -1c0,0 0,0 0,0l0 -7c1,0 1,0 1,0 2,-2 2,-4 0,-6 -1,-1 -4,-1 -5,0 -2,2 -2,4 0,6 0,0 1,0 1,0l-1 2c0,0 0,0 1,0l1 1 -1 1c0,0 0,1 0,1l1 1 -1 1c0,0 0,0 0,0l1 1c0,1 1,1 1,0z"/>
   <path class="fil0" d="M111 59l1 0c0,0 0,0 1,0l4 -6c0,0 0,0 1,0 2,0 3,-2 3,-4 -1,-3 -3,-4 -5,-3 -2,0 -3,2 -3,4 0,1 1,1 1,1l-1 1c-1,0 -1,0 -1,0l1 2 -2 0c0,0 0,1 0,1l0 1 -1 1c0,0 0,0 0,0l0 2c0,0 1,0 1,0z"/>
   <path class="fil1" d="M120 41c1,0 2,0 3,1 1,1 2,2 2,4 0,1 -1,2 -2,3 -1,1 -2,1 -3,1 -1,0 -2,0 -3,-1 -1,-1 -1,-2 -1,-3 0,-2 0,-3 1,-4 1,-1 2,-1 3,-1zm2 3c-1,-1 -1,-1 -2,-1 -1,0 -1,0 -2,1 0,0 -1,1 -1,2 0,0 1,1 1,2 1,0 1,0 2,0 1,0 1,0 2,0 0,-1 1,-2 1,-2 0,-1 -1,-2 -1,-2z"/>
  </g>
 </g>
</svg>
