<svg xmlns="http://www.w3.org/2000/svg" width="30" height="38.97" viewBox="0 0 30 38.97">
  <defs>
    <style>
      .cls-1 {
        fill: #e8cd00;
        fill-rule: evenodd;
      }
    </style>
  </defs>
  <path id="Forma_1_копия_6" data-name="Forma 1 копия 6" class="cls-1" d="M994.51,1511.54l-2.644,1.8a1.634,1.634,0,0,0-.54-1.31,3.307,3.307,0,0,0,1.574-2.64,2.791,2.791,0,0,0-2.852-2.99,3.266,3.266,0,0,0-3.131,3.11,2.859,2.859,0,0,0,.8,2.16l-1.568.03a2.785,2.785,0,0,0,.745-1.75,2.4,2.4,0,0,0-2.445-2.57,2.805,2.805,0,0,0-2.683,2.67,2.449,2.449,0,0,0,.8,1.95,1.887,1.887,0,0,0-.959,1.54l-0.16,3.49a1.6,1.6,0,0,0,1.63,1.71l6.838-.13a1.876,1.876,0,0,0,1.789-1.78l2.485,1.69a0.931,0.931,0,0,0,.895-0.89l0.238-5.23A0.8,0.8,0,0,0,994.51,1511.54Zm-10.257.2a1.6,1.6,0,0,1-1.63-1.71,1.876,1.876,0,0,1,1.789-1.78,1.6,1.6,0,0,1,1.63,1.71A1.868,1.868,0,0,1,984.253,1511.74Zm5.556-.1a2.007,2.007,0,0,1-2.042-2.15,2.356,2.356,0,0,1,2.241-2.23,2.007,2.007,0,0,1,2.042,2.15A2.347,2.347,0,0,1,989.809,1511.64Zm-1.751-14.65A15.249,15.249,0,0,0,973,1512.32c-0.047,11.31,12.991,22.68,13.545,23.16a2.075,2.075,0,0,0,2.58.1c0.563-.42,13.806-10.28,13.866-23.25A15.117,15.117,0,0,0,988.058,1496.99Zm1.551,35.05a2.234,2.234,0,0,1-3.17-.07c-3.935-4.13-11.259-13.6-11.234-19.65,0.026-6.08,6.895-13.03,12.843-13.03s12.752,6.95,12.732,13.03C1000.75,1519.66,993.181,1528.63,989.609,1532.04Z" transform="translate(-973 -1497)"/>
</svg>
