<svg id="Группа_51" data-name="Группа 51" xmlns="http://www.w3.org/2000/svg" width="350" height="140.5" viewBox="0 0 350 140.5">
  <defs>
    <style>
      .cls-1 {
        fill: #fff;
        fill-rule: evenodd;
      }

      .cls-2 {
        fill: none;
        stroke: #979797;
        stroke-width: 1px;
      }
    </style>
  </defs>
  <path id="Forma_1" data-name="Forma 1" class="cls-1" d="M115.959,16.163h-0.437l-9.3,18.293-9.632-18.45L83.4,49.336H80v2.677H98.667V49.336h-3.7l3.7-10.417,7.557,13.094,7.261-13.094,3.7,10.417h-3.7v2.677h18.523V49.336H128.8Z"/>
  <path id="Forma_1-2" data-name="Forma 1" class="cls-1" d="M56.68,33.477L51.4,21.687a3.626,3.626,0,0,0-6.716.228L40.341,33.7a3.637,3.637,0,0,0,3.4,4.9h3.8v3.681H45.056a1.009,1.009,0,0,0-1.007,1.01v8.219A4.485,4.485,0,0,0,48.523,56h0.07a4.485,4.485,0,0,0,4.474-4.485V43.3a1.009,1.009,0,0,0-1.007-1.01H49.565V38.6h3.8A3.638,3.638,0,0,0,56.68,33.477ZM51.052,51.514a2.465,2.465,0,0,1-2.459,2.465h-0.07a2.465,2.465,0,0,1-2.459-2.465V44.3h4.989v7.209Zm3.672-15.668a1.588,1.588,0,0,1-1.356.739H43.746a1.618,1.618,0,0,1-1.514-2.18l4.347-11.789a1.613,1.613,0,0,1,2.987-.1L54.842,34.3A1.6,1.6,0,0,1,54.724,35.846ZM41.881,44.3a1.01,1.01,0,0,0,0-2.02H26.607A1.008,1.008,0,0,0,25.6,43.3v10.73a1.008,1.008,0,0,0,1.007,1.01H41.881a1.01,1.01,0,0,0,0-2.019H27.614V44.3H41.881Zm0-4.933h-5.26v-8.71H40.46a1.01,1.01,0,0,0,0-2.02H35.614a1.008,1.008,0,0,0-1.008,1.01V40.382a1.009,1.009,0,0,0,1.008,1.01h6.267A1.01,1.01,0,0,0,41.881,39.372ZM26.607,27.75H40.638a1.01,1.01,0,0,0,0-2.02H27.614V17.02H53.305v6.215a1.007,1.007,0,1,0,2.015,0V16.01A1.008,1.008,0,0,0,54.312,15H26.607A1.008,1.008,0,0,0,25.6,16.01V26.74A1.009,1.009,0,0,0,26.607,27.75Zm7.031,12.632V29.653a1.008,1.008,0,0,0-1.007-1.01H12.007A1.008,1.008,0,0,0,11,29.653V40.382a1.009,1.009,0,0,0,1.007,1.01H32.631A1.009,1.009,0,0,0,33.638,40.382Zm-2.015-1.01H13.015v-8.71H31.623v8.71Z"/>
  <path class="cls-1" d="M185.7,25.314a2.773,2.773,0,0,1,1.153.642,0.627,0.627,0,0,0,.428.17,0.634,0.634,0,0,0,.486-0.23,0.7,0.7,0,0,0-.058-0.958,4.09,4.09,0,0,0-1.2-.773V23.184a3.673,3.673,0,1,0-7.337,0v0.981a4.1,4.1,0,0,0-1.2.773,0.7,0.7,0,0,0-.058.958,0.627,0.627,0,0,0,.914.06,2.767,2.767,0,0,1,1.153-.642,0.674,0.674,0,0,0,.486-0.658V23.184a2.376,2.376,0,1,1,4.747,0v1.472A0.674,0.674,0,0,0,185.7,25.314Zm-13.865,4.207V30.5a4.3,4.3,0,0,0-2.589,4,4.208,4.208,0,0,0,4.1,4.3h1.51v3.168h-1.078a0.68,0.68,0,0,0,0,1.358h6.905a0.68,0.68,0,0,0,0-1.358h-4.532V38.8h1.511a4.209,4.209,0,0,0,4.1-4.3,4.532,4.532,0,0,0-.03-0.522,0.655,0.655,0,0,0-.721-0.592,0.672,0.672,0,0,0-.564.756,3.282,3.282,0,0,1,.02.358,2.879,2.879,0,0,1-2.805,2.942h-1.511V34.5a0.648,0.648,0,1,0-1.295,0v2.942h-1.51a2.879,2.879,0,0,1-2.805-2.942,2.919,2.919,0,0,1,2.1-2.85,0.674,0.674,0,0,0,.486-0.657V29.521a2.437,2.437,0,0,1,2.374-2.49,2.336,2.336,0,0,1,1.728.784,2.965,2.965,0,0,0-1.512,2.61,2.808,2.808,0,1,0,2.9-2.941,3.654,3.654,0,0,0-3.113-1.812A3.766,3.766,0,0,0,171.831,29.521Zm6.69-.679a1.586,1.586,0,1,1-1.511,1.584A1.55,1.55,0,0,1,178.521,28.842ZM164.5,23.184v0.981a4.1,4.1,0,0,0-1.2.773,0.7,0.7,0,0,0-.057.959,0.627,0.627,0,0,0,.914.059,2.763,2.763,0,0,1,1.154-.642,0.676,0.676,0,0,0,.486-0.658V23.184a2.376,2.376,0,1,1,4.747,0v1.472a0.674,0.674,0,0,0,.486.657,2.771,2.771,0,0,1,1.154.643,0.625,0.625,0,0,0,.913-0.06,0.7,0.7,0,0,0-.056-0.958,4.1,4.1,0,0,0-1.2-.774v-0.98A3.673,3.673,0,1,0,164.5,23.184Zm27.388-6.789a0.664,0.664,0,0,0,.647.678h1.1a1.133,1.133,0,0,1,0,2.264h-2.589a1.107,1.107,0,0,1-1.079-1.132,1.16,1.16,0,0,1,.145-0.565,0.7,0.7,0,0,0-.235-0.928,0.631,0.631,0,0,0-.885.247,2.588,2.588,0,0,0-.32,1.246,2.437,2.437,0,0,0,2.374,2.49h2.589a2.492,2.492,0,0,0,0-4.979h-1.1A0.664,0.664,0,0,0,191.883,16.395Zm-12.067,1.584h7.768a0.68,0.68,0,0,0,0-1.358h-7.768a1.133,1.133,0,0,1,0-2.263h11.221a1.076,1.076,0,0,1,.935.566,0.631,0.631,0,0,0,.884.248,0.7,0.7,0,0,0,.236-0.928A2.363,2.363,0,0,0,191.037,13H179.816A2.492,2.492,0,0,0,179.816,17.979Zm15.536,30.779a0.68,0.68,0,0,0,0-1.358h-0.215V45.363a0.648,0.648,0,1,0-1.295,0V47.4h-3.453V45.363a0.648,0.648,0,1,0-1.294,0V47.4h-3.453V45.363a0.648,0.648,0,1,0-1.295,0V47.4H180.9V45.363a0.648,0.648,0,1,0-1.3,0V47.4h-3.453V45.363a0.648,0.648,0,1,0-1.294,0V47.4H171.4V45.363a0.648,0.648,0,1,0-1.3,0V47.4h-1.856a0.68,0.68,0,0,0,0,1.358h1.856v5.884h-3.452V45.363a0.648,0.648,0,1,0-1.295,0v9.279h-3.453V48.758h1.856a0.68,0.68,0,0,0,0-1.358h-1.856V45.363a0.648,0.648,0,1,0-1.294,0V47.4h-3.453V45.363a0.648,0.648,0,1,0-1.295,0V47.4h-0.216a0.68,0.68,0,0,0,0,1.358h0.216v5.884h-0.216a0.68,0.68,0,0,0,0,1.358h26.327a0.68,0.68,0,0,0,0-1.358H180.9V48.758h3.452v5.884H184.16a0.68,0.68,0,0,0,0,1.358h11.192a0.68,0.68,0,0,0,0-1.358h-0.215V48.758h0.215ZM160.61,54.642h-3.452V48.758h3.452v5.884Zm14.243,0H171.4V48.758h3.453v5.884Zm4.747,0h-3.453V48.758H179.6v5.884Zm9.5,0h-3.453V48.758H189.1v5.884Zm4.747,0h-3.453V48.758h3.453v5.884ZM162.984,17.979a3.112,3.112,0,0,1,2.035.754,0.626,0.626,0,0,0,.91-0.1,0.7,0.7,0,0,0-.1-0.955,4.412,4.412,0,0,0-2.849-1.056,4.651,4.651,0,0,0-4.531,4.752,4.905,4.905,0,0,0,1.007,2.987,0.627,0.627,0,0,0,.91.1,0.7,0.7,0,0,0,.1-0.955,3.46,3.46,0,0,1-.719-2.133A3.322,3.322,0,0,1,162.984,17.979Zm-1.726,15.842a0.664,0.664,0,0,0-.648.679v2.942H159.1a2.879,2.879,0,0,1-2.805-2.942,0.648,0.648,0,1,0-1.295,0,4.208,4.208,0,0,0,4.1,4.3h1.51v3.168h-0.647a0.68,0.68,0,0,0,0,1.358h6.905a0.68,0.68,0,0,0,0-1.358h-4.963V38.8h1.511a4.209,4.209,0,0,0,4.1-4.3,4.3,4.3,0,0,0-2.59-4v-0.98a3.765,3.765,0,0,0-3.668-3.847,3.655,3.655,0,0,0-3.124,1.83,2.734,2.734,0,0,0-.329-0.02,2.946,2.946,0,1,0,2.806,2.942,2.984,2.984,0,0,0-1.228-2.431,2.351,2.351,0,0,1,1.875-.963,2.436,2.436,0,0,1,2.374,2.489v1.472a0.673,0.673,0,0,0,.486.657,2.919,2.919,0,0,1,2.1,2.849,2.88,2.88,0,0,1-2.805,2.942h-1.511V34.5A0.664,0.664,0,0,0,161.258,33.821Zm-3.453-1.81a1.586,1.586,0,1,1,1.511-1.585A1.55,1.55,0,0,1,157.805,32.011Zm32.584-1.585a2.809,2.809,0,1,0,2.806-2.942,2.734,2.734,0,0,0-.329.02,3.655,3.655,0,0,0-3.124-1.83,3.765,3.765,0,0,0-3.668,3.847V30.5a4.3,4.3,0,0,0-2.59,4,4.208,4.208,0,0,0,4.1,4.3H189.1v3.168h-0.648a0.68,0.68,0,0,0,0,1.358h6.906a0.68,0.68,0,0,0,0-1.358h-4.964V38.8H191.9a4.208,4.208,0,0,0,4.1-4.3,4.579,4.579,0,0,0-.047-0.653,0.652,0.652,0,0,0-.738-0.569,0.675,0.675,0,0,0-.542.773,3.181,3.181,0,0,1,.032.448,2.879,2.879,0,0,1-2.805,2.943h-1.511V34.5a0.648,0.648,0,1,0-1.294,0v2.942h-1.511a2.879,2.879,0,0,1-2.805-2.942,2.919,2.919,0,0,1,2.1-2.849,0.674,0.674,0,0,0,.486-0.658V29.521a2.437,2.437,0,0,1,2.374-2.49,2.352,2.352,0,0,1,1.875.963A2.983,2.983,0,0,0,190.389,30.426Zm2.806-1.584a1.586,1.586,0,1,1-1.511,1.584A1.551,1.551,0,0,1,193.2,28.842ZM158.674,16.008a6.508,6.508,0,0,1,4.31-1.651,6.7,6.7,0,0,1,6.1,4.127,0.647,0.647,0,0,0,.59.4,0.619,0.619,0,0,0,.267-0.06,0.693,0.693,0,0,0,.323-0.9A7.994,7.994,0,0,0,162.984,13a7.767,7.767,0,0,0-5.145,1.97,0.7,0.7,0,0,0-.078.957A0.628,0.628,0,0,0,158.674,16.008Zm-1.3,11a0.626,0.626,0,0,0,.417-0.16,0.7,0.7,0,0,0,.078-0.957,7.3,7.3,0,0,1-.561-8.235,0.7,0.7,0,0,0-.206-0.936,0.63,0.63,0,0,0-.892.216,8.707,8.707,0,0,0,.669,9.83A0.634,0.634,0,0,0,157.374,27.011Z"/>
  <path id="Forma_1-3" data-name="Forma 1" class="cls-1" d="M272,30.6c-0.02-.461-0.28-1.317-1.79-1.861l-40.275-14.5a4,4,0,0,0-5.106,2.358l-1.091,2.966h0l-2.453,6.673a3.939,3.939,0,0,0,2.382,5.056l11.738,4.225a4.668,4.668,0,0,0,.959,3.686l-2.5,6.8a0.805,0.805,0,0,1-.755.523h-7.326V44.164a2.382,2.382,0,0,0-2.391-2.367H221.8a0.792,0.792,0,0,0-.8.789V55.211a0.792,0.792,0,0,0,.8.789h1.593a2.382,2.382,0,0,0,2.391-2.367V51.265h7.326a5.6,5.6,0,0,0,5.248-3.639l2.448-6.659a4.75,4.75,0,0,0,3.43-2.269l13.716,4.937a4.006,4.006,0,0,0,4.759-1.644l1.574,0.567a1.6,1.6,0,0,0,1.218-.052,1.573,1.573,0,0,0,.824-0.89l2.181-5.933a1.572,1.572,0,0,0-.68-1.893l2.554-1.18C271.837,31.938,272.021,31.063,272,30.6ZM224.188,53.632a0.794,0.794,0,0,1-.8.789h-0.8V43.375h0.8a0.794,0.794,0,0,1,.8.789v9.468Zm12.671-6.546a4,4,0,0,1-3.751,2.6h-7.326V48.109h7.326a2.4,2.4,0,0,0,2.253-1.561l2.288-6.223a4.877,4.877,0,0,0,.842.4,5.028,5.028,0,0,0,.64.183Zm3.377-7.655h-0.055a3.253,3.253,0,0,1-2.291-.9,0.755,0.755,0,0,0-.1-0.1,3.11,3.11,0,0,1-.851-2.357l5.753,2.071A3.169,3.169,0,0,1,240.236,39.431Zm26.773-4.288-2.18,5.933-1.5-.54,2.068-5.625,0.423-.2Zm2.7-3.962-4.26,1.967h0l-1.021.471h0l-1.2.552a8.131,8.131,0,0,1-5.275.228L234.9,26.106a0.8,0.8,0,0,0-1.021.473,0.788,0.788,0,0,0,.477,1.011l23.05,8.293a8.483,8.483,0,0,0,2.8.43,9.813,9.813,0,0,0,3.161-.5l-1.809,4.922a2.4,2.4,0,0,1-3.064,1.414L224.212,29.811a2.363,2.363,0,0,1-1.429-3.034l1.363-3.709a3.962,3.962,0,0,0,1.974,1.553l0.749,0.27a0.8,0.8,0,0,0,1.021-.472,0.787,0.787,0,0,0-.476-1.011l-0.749-.27a2.363,2.363,0,0,1-1.429-3.034l0.273-.742h0l0.817-2.224a2.4,2.4,0,0,1,3.065-1.415l40.274,14.5a1.447,1.447,0,0,1,.739.447A1.445,1.445,0,0,1,269.707,31.18Zm-37.8-6.154-1.5-.539a0.8,0.8,0,0,0-1.022.471,0.788,0.788,0,0,0,.477,1.012l1.5,0.54a0.8,0.8,0,0,0,1.021-.471A0.788,0.788,0,0,0,231.907,25.026Z"/>
  <path class="cls-1" d="M27.967,110.216a0.817,0.817,0,0,0,.817.817H32.05a0.817,0.817,0,0,0,.817-0.817v-4.9a0.817,0.817,0,0,0-.817-0.816H28.783a0.817,0.817,0,0,0-.817.816v4.9h0Zm1.633-4.083h1.633V109.4H29.6v-3.267Zm-0.817-4.9H32.05a0.817,0.817,0,0,0,.817-0.817v-4.9A0.817,0.817,0,0,0,32.05,94.7H28.783a0.817,0.817,0,0,0-.817.817v4.9A0.817,0.817,0,0,0,28.783,101.233Zm0.817-4.9h1.633V99.6H29.6V96.333ZM22.671,95.4L34.5,88.3l11.83,7.1a0.816,0.816,0,1,0,.841-1.4L35.317,86.888V81.633H39.4v1.633H36.95a0.817,0.817,0,0,0,0,1.633h3.267a0.817,0.817,0,0,0,.817-0.817V80.816A0.817,0.817,0,0,0,40.217,80H34.5a0.817,0.817,0,0,0-.817.817v6.071L21.829,94A0.816,0.816,0,1,0,22.671,95.4Zm-3.687,15.633a0.817,0.817,0,0,0,.817-0.817v-4.9a0.817,0.817,0,0,0-.817-0.817H15.717a0.817,0.817,0,0,0-.816.817v1.633a0.817,0.817,0,1,0,1.633,0v-0.817h1.633v4.083A0.817,0.817,0,0,0,18.983,111.033ZM24.7,121.65V97.967a0.817,0.817,0,1,0-1.633,0V121.65A0.817,0.817,0,0,0,24.7,121.65Zm-4.083,4.083H48.383a0.817,0.817,0,1,0,0-1.633h-7.35v-8.167H41.85a0.817,0.817,0,1,0,0-1.633H27.15a0.817,0.817,0,1,0,0,1.633h0.817V124.1h-7.35A0.817,0.817,0,1,0,20.617,125.733Zm14.7-4.9a0.817,0.817,0,1,0,0-1.633v-3.267H39.4V124.1H35.317v-3.267h0Zm-5.717-4.9h4.083V119.2a0.817,0.817,0,1,0,0,1.633V124.1H29.6v-8.167Zm23.684-.817H50.017a0.817,0.817,0,0,0-.817.817v4.9a0.817,0.817,0,0,0,.817.817h3.267a0.817,0.817,0,0,0,.816-0.817v-4.9A0.817,0.817,0,0,0,53.283,115.116Zm-0.817,4.9H50.833V116.75h1.633v3.267Zm0.817-14.7H50.017a0.817,0.817,0,0,0-.817.817v4.9a0.817,0.817,0,0,0,.817.817h3.267a0.817,0.817,0,0,0,.816-0.817v-4.9A0.817,0.817,0,0,0,53.283,105.316Zm-0.817,4.9H50.833V106.95h1.633v3.266Zm-0.817,17.15H17.35a0.817,0.817,0,0,0,0,1.634h34.3A0.817,0.817,0,0,0,51.65,127.366Zm6.533-29.4a0.817,0.817,0,0,0-.817.817V99.6H48.383a0.817,0.817,0,1,0,0,1.633h8.983v26.95a0.817,0.817,0,1,0,1.633,0v-29.4A0.817,0.817,0,0,0,58.183,97.967Zm-22.05,12.249a0.817,0.817,0,0,0,.816.817h3.267a0.817,0.817,0,0,0,.817-0.817v-4.9a0.817,0.817,0,0,0-.817-0.816H36.95a0.817,0.817,0,0,0-.816.816v4.9h0Zm1.633-4.083H39.4V109.4H37.767v-3.267h0Zm-19.6,13.884c0-.107-0.047-10.617-4.083-10.617S10,119.91,10,120.017a4.089,4.089,0,0,0,3.267,4v4.166a0.817,0.817,0,1,0,1.633,0v-4.166A4.089,4.089,0,0,0,18.167,120.017Zm-4.083,2.449a2.453,2.453,0,0,1-2.45-2.449c0-4.069,1.093-8.984,2.45-8.984s2.45,4.915,2.45,8.984A2.453,2.453,0,0,1,14.083,122.466Zm31.85-.816V97.15a0.817,0.817,0,1,0-1.633,0v24.5A0.817,0.817,0,0,0,45.933,121.65ZM36.95,101.233h3.267a0.817,0.817,0,0,0,.817-0.817v-4.9a0.817,0.817,0,0,0-.817-0.817H36.95a0.817,0.817,0,0,0-.816.817v4.9A0.817,0.817,0,0,0,36.95,101.233Zm0.817-4.9H39.4V99.6H37.767V96.333h0Zm-26.95,12.25a0.817,0.817,0,0,0,.817-0.816v-6.534h8.983a0.817,0.817,0,1,0,0-1.633H11.633V98.783a0.817,0.817,0,0,0-1.633,0v8.984A0.817,0.817,0,0,0,10.817,108.583Z"/>
  <path id="Forma_1-4" data-name="Forma 1" class="cls-1" d="M92.789,99.219a3.429,3.429,0,1,0-3.073-3.41A3.259,3.259,0,0,0,92.789,99.219Zm0-5.547a2.148,2.148,0,1,1-1.925,2.137A2.041,2.041,0,0,1,92.789,93.672Zm2.05,11.945a8.9,8.9,0,0,0,8.247-6.274h5.725l2.3,2.552a0.534,0.534,0,0,0,.811,0l2.062-2.288,2.062,2.288a0.534,0.534,0,0,0,.817-0.006l4.942-5.637a0.689,0.689,0,0,0,0-.884l-2.5-2.9a0.55,0.55,0,0,0-.415-0.2H103.2a10.224,10.224,0,0,0-3.125-4.383A8.292,8.292,0,0,0,94.839,86C89.965,86,86,90.4,86,95.809S89.965,105.617,94.839,105.617Zm0-18.344a8.115,8.115,0,0,1,7.431,5.859,0.579,0.579,0,0,0,.538.415h15.845L120.6,95.8l-4.15,4.734-2.056-2.282a0.534,0.534,0,0,0-.811,0l-2.062,2.288-2.062-2.288a0.546,0.546,0,0,0-.406-0.186h-6.367a0.582,0.582,0,0,0-.544.436,7.8,7.8,0,0,1-7.3,5.838c-4.241,0-7.691-3.829-7.691-8.535S90.6,87.274,94.839,87.274Zm8.265,9.172h14.975a0.64,0.64,0,0,0,0-1.274H103.1A0.64,0.64,0,0,0,103.1,96.445Zm-16.53,15.967h10.81a0.608,0.608,0,0,0,.574-0.637v-3.4a0.608,0.608,0,0,0-.574-0.637H86.574a0.608,0.608,0,0,0-.574.637v3.4A0.608,0.608,0,0,0,86.574,112.412Zm0.574-3.4H96.81v2.123H87.148v-2.123Zm34.246-1.274h-6.983a0.608,0.608,0,0,0-.574.637v3.4a0.608,0.608,0,0,0,.574.637h6.983a0.608,0.608,0,0,0,.574-0.637v-3.4A0.608,0.608,0,0,0,121.394,107.741Zm-0.574,3.4h-5.835v-2.123h5.835v2.123Zm-8.131.637v-3.4a0.608,0.608,0,0,0-.574-0.637H99.679a0.608,0.608,0,0,0-.574.637v3.4a0.608,0.608,0,0,0,.574.637h12.436A0.608,0.608,0,0,0,112.689,111.775Zm-1.148-.637H100.253v-2.123h11.288v2.123Zm-24.967,8.068h6.983a0.608,0.608,0,0,0,.574-0.637v-3.4a0.608,0.608,0,0,0-.574-0.637H86.574a0.608,0.608,0,0,0-.574.637v3.4A0.608,0.608,0,0,0,86.574,119.206Zm0.574-3.4h5.835v2.124H87.148v-2.124Zm34.246-1.273H107.523a0.608,0.608,0,0,0-.574.637v3.4a0.608,0.608,0,0,0,.574.637h13.871a0.608,0.608,0,0,0,.574-0.637v-3.4A0.608,0.608,0,0,0,121.394,114.535Zm-0.574,3.4H108.1v-2.124H120.82v2.124Zm-24.967-3.4a0.608,0.608,0,0,0-.574.637v3.4a0.609,0.609,0,0,0,.574.637h9.374a0.608,0.608,0,0,0,.574-0.637v-3.4a0.608,0.608,0,0,0-.574-0.637H95.853Zm8.8,3.4H96.427v-2.124h8.226v2.124Zm-4.974,3.4H86.574a0.608,0.608,0,0,0-.574.637v3.4a0.608,0.608,0,0,0,.574.637H99.679a0.608,0.608,0,0,0,.574-0.637v-3.4A0.608,0.608,0,0,0,99.679,121.329Zm-0.574,3.4H87.148V122.6H99.105v2.123Zm22.289-3.4h-10.81a0.608,0.608,0,0,0-.574.637v3.4a0.608,0.608,0,0,0,.574.637h10.81a0.608,0.608,0,0,0,.574-0.637v-3.4A0.608,0.608,0,0,0,121.394,121.329Zm-0.574,3.4h-9.662V122.6h9.662v2.123Zm-12.532-3.4h-6.313a0.608,0.608,0,0,0-.574.637v3.4a0.608,0.608,0,0,0,.574.637h6.313a0.609,0.609,0,0,0,.575-0.637v-3.4A0.609,0.609,0,0,0,108.288,121.329Zm-0.573,3.4h-5.166V122.6h5.166v2.123Z"/>
  <path id="Forma_1-5" data-name="Forma 1" class="cls-1" d="M263.944,123.947l-6.058-14.7a0.731,0.731,0,1,0-1.349.562l5.476,13.291-5-1.455a0.726,0.726,0,0,0-.842.351l-2.509,4.58-5.876-14.262a14.759,14.759,0,1,0-14.592-5.7l-7.143,17.336a0.737,0.737,0,0,0,.131.771,0.726,0.726,0,0,0,.747.215l5.893-1.716,2.959,5.4a0.731,0.731,0,0,0,.64.38h0.04a0.733,0.733,0,0,0,.635-0.452l5.659-13.737a0.731,0.731,0,1,0-1.349-.562l-5.078,12.326-2.509-4.58a0.728,0.728,0,0,0-.843-0.351l-5,1.455,6.27-15.216A14.638,14.638,0,0,0,245,112.58q0.656,0,1.3-.058l6.6,16.025a0.733,0.733,0,0,0,.635.452h0.04a0.728,0.728,0,0,0,.639-0.38l2.96-5.4,5.893,1.716a0.726,0.726,0,0,0,.747-0.215A0.737,0.737,0,0,0,263.944,123.947Zm-32.2-26.157A13.252,13.252,0,1,1,245,111.112,13.3,13.3,0,0,1,231.748,97.79Zm21.688-2.756a0.731,0.731,0,0,0-.573-0.5l-4.913-.829-2.3-4.441a0.728,0.728,0,0,0-1.295,0l-2.3,4.441-4.913.829a0.735,0.735,0,0,0-.4,1.238l3.49,3.574-0.734,4.954a0.736,0.736,0,0,0,.293.7,0.727,0.727,0,0,0,.755.063L245,102.835l4.459,2.233a0.728,0.728,0,0,0,.755-0.063,0.736,0.736,0,0,0,.293-0.7l-0.734-4.954,3.49-3.574A0.733,0.733,0,0,0,253.436,95.034Zm-4.96,3.547a0.737,0.737,0,0,0-.2.622l0.581,3.922-3.53-1.768a0.729,0.729,0,0,0-.652,0l-3.53,1.768,0.581-3.922a0.737,0.737,0,0,0-.2-0.622l-2.764-2.83,3.89-.656a0.732,0.732,0,0,0,.527-0.385L245,91.194l1.823,3.517a0.732,0.732,0,0,0,.527.385l3.889,0.656Zm7.584-.051a0.73,0.73,0,0,0-.819.632,10.386,10.386,0,1,1,0-2.744,0.73,0.73,0,1,0,1.447-.193,11.854,11.854,0,1,0,0,3.129A0.733,0.733,0,0,0,256.06,98.53Z"/>
  <path class="cls-1" d="M332.8,122.774h-1.781a4.168,4.168,0,0,1-2.8-1.084l-3.247-2.937v-8.881a7.918,7.918,0,0,0,7.226-7.937,8.009,8.009,0,0,0-2.947-6.228,6.167,6.167,0,0,0,1.14-3.578,6.023,6.023,0,1,0-12.044,0,6.175,6.175,0,0,0,1.14,3.578,8.011,8.011,0,0,0-2.946,6.228,7.918,7.918,0,0,0,7.226,7.937v7.791l-3.651-3.3a5.394,5.394,0,0,0-2.371-1.244v-4.439a3.042,3.042,0,0,0-3.011-3.065h-1.2v-8.58h1.867L306.585,86h-1.778L296,97.032h1.867v25.742h-1.2V124H334v-1.226h-1.2Zm-20.475,0H299.072v-8.581H312.32v8.581Zm-13.248-9.806v-8.581h1.2v8.581h-1.2Zm2.409,0v-8.581h1.2v8.581h-1.2Zm2.408,0v-8.581h1.2v8.581h-1.2Zm2.409,0v-8.581h1.2v8.581h-1.2Zm2.409,0v-8.581h1.2v8.581h-1.2Zm3.613,0h-1.2v-8.581h1.2v8.581Zm0-9.807H299.072V97.032H312.32v6.129Zm-13.789-7.355,6.85-8.58h0.631l6.85,8.58H298.531Zm14.994,11.033h1.2a1.825,1.825,0,0,1,1.807,1.838h-3.011v-1.838Zm0,3.064h3.011v3.066h-3.011V109.9Zm10.237,12.871H313.525v-8.58h2.985a4.172,4.172,0,0,1,2.8,1.083l4.451,4.027v3.47h0Zm3.39-23.859-2.788,1.135-2.787-1.135-0.447,1.138,2.632,1.073v7.521a6.771,6.771,0,0,1-3.079-12.314l0.578-.395-0.467-.526a4.933,4.933,0,0,1-1.247-3.282,4.818,4.818,0,1,1,9.635,0,4.933,4.933,0,0,1-1.247,3.282l-0.467.526,0.578,0.395a6.771,6.771,0,0,1-3.079,12.314v-7.521l2.632-1.072Zm-2.185,23.859h0v-2.381l2.446,2.214c0.066,0.059.135,0.112,0.2,0.167h-2.649Z"/>
  <path class="cls-1" d="M174.349,98.025H160.69a0.8,0.8,0,0,0-.817.787v4.73a0.8,0.8,0,0,0,.817.787h13.659a0.8,0.8,0,0,0,.817-0.787v-4.73A0.8,0.8,0,0,0,174.349,98.025Zm-0.817,4.73H161.506V99.6h12.026v3.156Zm20.5,18.452h-0.6V89.9a1.936,1.936,0,0,0-1.968-1.9,1.981,1.981,0,0,0-1.751,1.035H177.251a2,2,0,0,0-3.5,0H161.29A1.981,1.981,0,0,0,159.539,88a1.936,1.936,0,0,0-1.968,1.9v31.311h-0.6a1.9,1.9,0,1,0,0,3.793h5.141a1.9,1.9,0,1,0,0-3.793h-0.6v-1.162h12.026v1.162h-0.6a1.9,1.9,0,1,0,0,3.793h5.142a1.9,1.9,0,1,0,0-3.793h-0.6V92.828h12.026v28.379h-0.6a1.9,1.9,0,1,0,0,3.793h5.141A1.9,1.9,0,1,0,194.032,121.207Zm0,2.219h-5.141a0.323,0.323,0,1,1,0-.645h1.419a0.8,0.8,0,0,0,.817-0.787V92.041a0.8,0.8,0,0,0-.817-0.787H176.651a0.8,0.8,0,0,0-.817.787v29.953a0.8,0.8,0,0,0,.817.787h1.42a0.323,0.323,0,1,1,0,.645h-5.142a0.323,0.323,0,1,1,0-.645h1.42a0.8,0.8,0,0,0,.817-0.787v-2.736a0.8,0.8,0,0,0-.817-0.788H160.69a0.8,0.8,0,0,0-.817.788v2.736a0.8,0.8,0,0,0,.817.787h1.419a0.323,0.323,0,1,1,0,.645h-5.141a0.323,0.323,0,1,1,0-.645h1.419a0.8,0.8,0,0,0,.817-0.787V89.9a0.335,0.335,0,0,1,.667-0.022,0.8,0.8,0,0,0,.815.735h13.667a0.805,0.805,0,0,0,.815-0.735,0.334,0.334,0,0,1,.664,0,0.805,0.805,0,0,0,.815.735h13.667a0.8,0.8,0,0,0,.815-0.735,0.335,0.335,0,0,1,.667.022v32.1a0.8,0.8,0,0,0,.817.787h1.419A0.323,0.323,0,1,1,194.032,123.426Zm-19.683-11.8H160.69a0.8,0.8,0,0,0-.817.787v4.73a0.8,0.8,0,0,0,.817.787h13.659a0.8,0.8,0,0,0,.817-0.787v-4.73A0.8,0.8,0,0,0,174.349,111.625Zm-0.817,4.73H161.506V113.2h12.026v3.156Zm0.817-25.13H160.69a0.8,0.8,0,0,0-.817.787v4.73a0.8,0.8,0,0,0,.817.787h13.659a0.8,0.8,0,0,0,.817-0.787v-4.73A0.8,0.8,0,0,0,174.349,91.225Zm-0.817,4.73H161.506V92.8h12.026v3.156Zm0.817,8.869H160.69a0.8,0.8,0,0,0-.817.787v4.731a0.8,0.8,0,0,0,.817.787h13.659a0.8,0.8,0,0,0,.817-0.787v-4.731A0.8,0.8,0,0,0,174.349,104.824Zm-0.817,4.731H161.506V106.4h12.026v3.156Z"/>
  <path class="cls-1" d="M294.383,51.435a1.826,1.826,0,1,1,1.821-1.826h1.561V21.174h5.2V19.608h-5.3a3.382,3.382,0,0,0-6.674.782V49.609A3.391,3.391,0,0,0,294.383,53h30.391V51.435H294.383Zm-1.822-31.044a1.822,1.822,0,1,1,3.643,0V46.753a3.365,3.365,0,0,0-3.643,0V20.391ZM326.6,51.435h1.561V53H326.6V51.435ZM338.617,17a3.385,3.385,0,0,0-3.292,2.609h-27.1v1.565h27.01V49.609H336.8a1.822,1.822,0,1,1,1.821,1.826h-8.586V53h8.586A3.391,3.391,0,0,0,342,49.609V20.391A3.391,3.391,0,0,0,338.617,17Zm1.822,29.753a3.365,3.365,0,0,0-3.643,0V20.391a1.822,1.822,0,1,1,3.643,0V46.753Zm-33.463-2.518V34.321h1.51V32.757h-3.071v2.3H303.75V25.765H306.4V24.2h-4.215V45.8h7.546V44.235h-2.759Zm-1.561,0H303.75V43.5h1.665v0.73Zm0-2.3H303.75v-0.73h1.665v0.73Zm0-2.3H303.75v-0.73h1.665v0.73Zm0-2.3H303.75v-0.73h1.665v0.73Zm25.292-2.609V24.2H310.983v1.565h4.736v6.991H314.21v1.565h1.509V36.2h5.517v4.226H322.8V36.2h3.695V34.634H317.28v-8.87h11.866v18.47H322.8V42.721h-1.561v1.513h-8.067V45.8h17.538V42.147h2.706V34.739h-2.706Zm1.145,5.843h-1.145V36.3h1.145v4.279ZM304.791,19.608h1.561v1.565h-1.561V19.608Z"/>
  <rect id="Прямоугольник_2" data-name="Прямоугольник 2" class="cls-2" width="350" height="140"/>
</svg>
